<?xml version="1.0" encoding="utf-8"?><svg fill="none" viewBox="0 0 2000 2000" xmlns="http://www.w3.org/2000/svg"><defs><linearGradient id="null" gradientUnits="userSpaceOnUse" spreadMethod="pad" x2="-705.483" y2="623.093" x1="332.134" y1="-267.46"><stop offset="0%" stop-color="#e3dbf9" /><stop offset="27%" stop-color="#d7cbf9" /><stop offset="54%" stop-color="#ccbbfa" /><stop offset="77%" stop-color="#a282fb" /><stop offset="100%" stop-color="#7848fc" /></linearGradient><linearGradient id="null" gradientUnits="userSpaceOnUse" spreadMethod="pad" x2="-229.234" y2="314.24" x1="122.085" y1="-245.419"><stop offset="0%" stop-color="#e3dbf9" /><stop offset="27%" stop-color="#d7cbf9" /><stop offset="54%" stop-color="#ccbbfa" /><stop offset="77%" stop-color="#a282fb" /><stop offset="100%" stop-color="#7848fc" /></linearGradient><linearGradient id="null" gradientUnits="userSpaceOnUse" spreadMethod="pad" x2="93.439" y2="135.057" x1="-53.625" y1="-69.199"><stop offset="0%" stop-color="#fb9c9a" /><stop offset="32%" stop-color="#fb9290" /><stop offset="64%" stop-color="#fc8886" /><stop offset="74%" stop-color="#fc6e6b" /><stop offset="84%" stop-color="#fd5450" /><stop offset="92%" stop-color="#fe3631" /><stop offset="100%" stop-color="#ff1712" /></linearGradient><linearGradient id="null" gradientUnits="userSpaceOnUse" spreadMethod="pad" x2="408.384" y2="-17.259" x1="-52.306" y1="-3.321"><stop offset="0%" stop-color="#fb9c9a" /><stop offset="31.5%" stop-color="#fb928f" /><stop offset="63%" stop-color="#fc8784" /><stop offset="73%" stop-color="#fc6c69" /><stop offset="83%" stop-color="#fd524e" /><stop offset="91.5%" stop-color="#fe3530" /><stop offset="100%" stop-color="#ff1712" /></linearGradient><linearGradient id="null" gradientUnits="userSpaceOnUse" spreadMethod="pad" x2="91.513" y2="128.056" x1="-16.742" y1="-78.242"><stop offset="0%" stop-color="#20238c" /><stop offset="27%" stop-color="#1d2086" /><stop offset="54%" stop-color="#1a1d7f" /><stop offset="77%" stop-color="#101268" /><stop offset="100%" stop-color="#050751" /></linearGradient><linearGradient id="null" gradientUnits="userSpaceOnUse" spreadMethod="pad" x2="408.384" y2="-17.259" x1="-52.306" y1="-3.321"><stop offset="0%" stop-color="#fb9c9a" /><stop offset="31.5%" stop-color="#fb928f" /><stop offset="63%" stop-color="#fc8784" /><stop offset="73%" stop-color="#fc6c69" /><stop offset="83%" stop-color="#fd524e" /><stop offset="91.5%" stop-color="#fe3530" /><stop offset="100%" stop-color="#ff1712" /></linearGradient><linearGradient id="null" gradientUnits="userSpaceOnUse" spreadMethod="pad" x2="99.12" y2="198.947" x1="-168.455" y1="-223.862"><stop offset="0%" stop-color="#20238c" /><stop offset="25.5%" stop-color="#1d2085" /><stop offset="51%" stop-color="#191c7e" /><stop offset="75.5%" stop-color="#0f1268" /><stop offset="100%" stop-color="#050751" /></linearGradient><linearGradient id="null" gradientUnits="userSpaceOnUse" spreadMethod="pad" x2="48.143" y2="-594.083" x1="-41.729" y1="512.981"><stop offset="0%" stop-color="#817efa" /><stop offset="28.000000000000004%" stop-color="#7571f8" /><stop offset="56.00000000000001%" stop-color="#6865f5" /><stop offset="78%" stop-color="#3732ec" /><stop offset="100%" stop-color="#0500e3" /></linearGradient><linearGradient id="null" gradientUnits="userSpaceOnUse" spreadMethod="pad" x2="398.116" y2="413.559" x1="-329.033" y1="-342.186"><stop offset="0%" stop-color="#817efa" /><stop offset="28.000000000000004%" stop-color="#7571f8" /><stop offset="56.00000000000001%" stop-color="#6865f5" /><stop offset="78%" stop-color="#3732ec" /><stop offset="100%" stop-color="#0500e3" /></linearGradient><linearGradient id="null" gradientUnits="userSpaceOnUse" spreadMethod="pad" x2="549.112" y2="-0.863" x1="143.05" y1="-0.863"><stop offset="0%" stop-color="#fb9c9a" /><stop offset="23.5%" stop-color="#fb8a87" /><stop offset="47%" stop-color="#fc7875" /><stop offset="73.5%" stop-color="#fd4744" /><stop offset="100%" stop-color="#ff1712" /></linearGradient><linearGradient id="null" gradientUnits="userSpaceOnUse" spreadMethod="pad" x2="-78.497" y2="181.071" x1="54.779" y1="-92.12"><stop offset="0%" stop-color="#20238c" /><stop offset="24.5%" stop-color="#1d2085" /><stop offset="49%" stop-color="#191c7d" /><stop offset="74.5%" stop-color="#0f1267" /><stop offset="100%" stop-color="#050751" /></linearGradient><linearGradient id="null" gradientUnits="userSpaceOnUse" spreadMethod="pad" x2="549.112" y2="-0.863" x1="143.05" y1="-0.863"><stop offset="0%" stop-color="#fb9c9a" /><stop offset="23.5%" stop-color="#fb8a87" /><stop offset="47%" stop-color="#fc7875" /><stop offset="73.5%" stop-color="#fd4744" /><stop offset="100%" stop-color="#ff1712" /></linearGradient><linearGradient id="null" gradientUnits="userSpaceOnUse" spreadMethod="pad" x2="-139.247" y2="255.916" x1="61.945" y1="-138.296"><stop offset="0%" stop-color="#aadbff" /><stop offset="30%" stop-color="#9ed6ff" /><stop offset="60%" stop-color="#91d1ff" /><stop offset="70.5%" stop-color="#76c5ff" /><stop offset="81%" stop-color="#5ab9ff" /><stop offset="90.5%" stop-color="#3eadff" /><stop offset="100%" stop-color="#22a1ff" /></linearGradient><linearGradient id="null" gradientUnits="userSpaceOnUse" spreadMethod="pad" x2="-94.123" y2="126.352" x1="42.728" y1="-90.158"><stop offset="0%" stop-color="#aadbff" /><stop offset="23.5%" stop-color="#97d3ff" /><stop offset="47%" stop-color="#85cbff" /><stop offset="73.5%" stop-color="#53b6ff" /><stop offset="100%" stop-color="#22a1ff" /></linearGradient><linearGradient id="null" gradientUnits="userSpaceOnUse" spreadMethod="pad" x2="1" y2="93" x1="1" y1="-94"><stop offset="0.2%" stop-color="#1e2188" /><stop offset="50.1%" stop-color="#1e2188" /><stop offset="100%" stop-color="#1e2188" /></linearGradient><linearGradient id="null" gradientUnits="userSpaceOnUse" spreadMethod="pad" x2="100" y2="0" x1="0" y1="0"><stop offset="0%" stop-color="#817efa" /><stop offset="28.000000000000004%" stop-color="#7571f8" /><stop offset="56.00000000000001%" stop-color="#6865f5" /><stop offset="78%" stop-color="#3732ec" /><stop offset="100%" stop-color="#0500e3" /></linearGradient></defs><g transform="matrix(1,0,0,1,0,0)" id="BG"><g id="Group 4" transform="matrix(1,0,0,1,883.935,1044.164)"><path fill="#f5f2fd" fill-opacity="1" d="M-82.118,-569.904C413.201,-571.298,721.488,-348.737,760.527,-17.775C801.997,334.012,638.625,251.745,371.503,471.237C-18.433,791.6,-170.223,244.066,-701.087,73.078C-952.563,-7.916,-426.787,-568.932,-82.118,-569.904Z" /></g><g id="Group 3" transform="matrix(1,0,0,1,373.094,1435.836)"><path fill="#f5f2fd" fill-opacity="1" d="M46.248,-140.769C185.137,-33.688,266.911,64.091,226.074,134.843C182.682,210.059,119.058,209.179,9.939,192.599C-149.317,168.407,-105.706,-6.64,-227.59,-153.874C-285.328,-223.62,-50.399,-215.281,46.248,-140.769Z" /></g><g id="Group 2" transform="matrix(1,0,0,1,1094.056,516.875)"><path fill="#f5f2fd" fill-opacity="1" d="M13.572,-82.707C35.148,-87.217,54.532,-96.553,70.091,-113.05C78.214,-121.73,79.031,-132.738,73.787,-140.556C68.973,-147.739,59.174,-152.027,45.764,-149.708C16.022,-144.503,4.761,-125.967,6.265,-106.115C6.91,-98.24,9.446,-90.192,13.572,-82.707ZM7.039,-81.502C1.795,-80.647,-3.577,-80.059,-9.036,-79.697C-77.331,-75.169,-160.198,-105.952,-217.276,-113.029C-262.663,-118.734,-314.498,-114.025,-364.484,-102.569C-415.244,-90.933,-464.069,-72.322,-502.193,-50.563C-505.072,-48.9,-505.975,-45.298,-504.256,-42.529C-502.537,-39.756,-498.798,-38.856,-495.961,-40.519C-458.998,-62.264,-411.548,-81.062,-362.077,-93.042C-313.38,-104.835,-262.749,-110.039,-218.307,-104.973C-160.842,-98.328,-77.246,-68.358,-8.563,-73.34C-2.116,-73.808,4.202,-74.578,10.348,-75.698C17.44,-64.483,27.755,-54.737,40.263,-48.688C57.713,-40.228,78.086,-36.04,99.748,-34.083C146.339,-29.881,198.946,-36.14,240.637,-31.566C303.13,-24.652,355.094,-5.425,396.441,23.918C441.398,55.817,473.72,99.673,493.362,152.385C494.523,155.42,498.005,156.979,501.142,155.866C504.28,154.753,505.913,151.384,504.752,148.353C483.648,93.808,449.479,48.649,402.416,16.005C359.521,-13.717,305.881,-33.101,241.54,-39.554C199.72,-43.784,147.069,-37.029,100.392,-40.894C79.632,-42.614,60.033,-46.461,43.228,-54.463C32.526,-59.579,23.5,-67.674,17.053,-77.073C39.059,-82.111,58.787,-92.021,74.647,-109.04C84.919,-120.003,85.564,-133.922,78.945,-143.772C73.014,-152.583,61.151,-158.351,44.689,-155.483C10.863,-149.65,-1.6,-128.271,0.033,-105.682C0.634,-97.58,3.042,-89.299,7.039,-81.502Z" /></g><g id="Group 1" transform="matrix(1,0,0,1,329.168,1511.981)"><path fill="#f5f2fd" fill-opacity="1" d="M-166.192,-164.516C-156.094,-148.605,-147.919,-131.589,-141.187,-113.971C-130.978,-87.295,-123.987,-59.318,-118.106,-31.938C-113.519,-9.829,-109.894,12.487,-103.643,34.034C-99.426,48.544,-94.063,62.719,-86.258,76.233C-76.456,93.566,-63.14,108.975,-47.679,122.123C-32.254,135.26,-14.722,146.135,3.773,154.222C14.056,158.753,24.746,162.358,35.695,165.196C46.57,168.027,57.703,170.08,68.874,171.463C81.191,172.999,93.694,173.497,106.27,173.312C124.913,173.038,143.629,171.228,161.828,168.977C165.157,168.518,167.45,165.549,166.969,162.348C166.525,159.147,163.419,156.924,160.127,157.383C142.409,160.09,124.172,162.401,105.974,163.173C93.878,163.689,81.857,163.532,69.984,162.373C59.183,161.31,48.382,159.616,37.84,157.141C27.261,154.669,16.904,151.434,6.917,147.312C-11.06,139.84,-28.26,129.726,-43.314,117.265C-58.369,104.804,-71.315,90.013,-80.932,73.402C-88.404,60.258,-93.545,46.506,-97.466,32.405C-103.384,10.936,-106.417,-11.309,-110.597,-33.336C-115.738,-61.285,-122.101,-89.844,-131.607,-117.224C-138.006,-135.699,-145.848,-153.63,-155.724,-170.469C-157.425,-173.253,-161.161,-174.178,-164.046,-172.535C-166.931,-170.896,-167.893,-167.3,-166.192,-164.516Z" /></g></g><g id="Leafs"><g transform="translate(1271.612,1566.819)"><g transform="rotate(1.151)"><animateTransform repeatCount="indefinite" type="rotate" attributeName="transform" dur="6s" begin="0.2s" calcMode="spline" values="0; 5; 0; 5; 0" keyTimes="0; 0.25; 0.5; 0.75; 1" keySplines="0.333 0 0.667 1; 0.333 0 0.667 1; 0.333 0 0.667 1; 0.333 0 0.667 1" fill="freeze" /><g transform="scale(1,1) translate(306.255,-205.359)"><g id="Group 1"><path fill="url(#null)" d="M-129.39,65.018C-129.294,65.245,-129.141,65.301,-129.045,65.528C-128.949,65.755,-126.278,69.611,-127.219,68.307C-122.442,77.734,-115.878,85.891,-109.201,93.705C-108.01,95.292,-106.764,96.707,-105.517,98.122C-117.136,90.238,-130.003,84.589,-143.242,81.112C-146.204,80.225,-148.553,79.561,-150.847,78.726C-143.81,73.987,-136.676,69.474,-129.39,65.018ZM280.216,78.358C260.918,72.481,243.623,66.758,225.67,58.872C202.309,49.209,181.76,33.074,158.947,22.265C137.22,11.275,113.502,6.863,90.873,-1.381C78.472,-5.322,65.082,-12.505,51.248,-16.776C56.183,-18.246,61.327,-19.831,66.414,-21.245C69.578,-22.015,72.797,-22.956,75.808,-23.781C80.322,-21.368,84.95,-19.297,89.633,-17.399C100.014,-13.041,110.66,-8.97,121.549,-6.157C146.61,-0.102,172.123,4.579,198.096,5.777C225.478,6.335,251.463,-1.88,277.558,-3.136C286.219,-3.441,295.096,-2.321,303.225,-2.05C304.618,-2.119,306.405,-3.39,306.245,-4.986C305.071,-7.144,302.206,-7.803,300.291,-9.269C281.784,-21.2,261.48,-29.749,239.685,-31.155C212.352,-33.425,185.346,-27.311,159.577,-33.816C153.428,-34.903,145.919,-37.061,139.441,-39.229C149.053,-43.991,158.723,-48.926,168.046,-54.37C183.762,-63.636,198.263,-75.457,213.15,-86.369C234.785,-102.703,257.706,-117.224,277.419,-136.564C280.326,-139.157,287.389,-146.578,279.589,-145.768C269.51,-142.713,259.608,-138.632,249.393,-136.203C190.536,-127.471,133.65,-97.649,90.888,-50.382C84.929,-43.713,79.218,-36.76,74.466,-29.074C74.144,-28.615,73.822,-28.156,73.653,-27.641C63.84,-24.874,54.276,-21.824,44.503,-18.657C44.141,-18.597,43.932,-18.48,43.57,-18.42C39.931,-17.247,36.293,-16.075,32.807,-14.846C35.401,-19.09,38.164,-23.849,40.346,-26.321C47.135,-34.995,53.641,-39.159,61.524,-46.473C80.689,-64.668,97.505,-87.178,106.749,-113.215C115.3,-136.622,124.686,-156.841,138.21,-177.667C144.659,-197.804,70.501,-120.654,66.95,-117.143C50.161,-100.966,39.276,-78.794,30.396,-56.468C26.197,-44.737,22.826,-31.358,17.759,-21.673C15.551,-16.519,12.08,-12.211,9.47,-7.396C9.51,-6.997,9.454,-6.825,9.55,-6.598C1.798,-3.849,-5.914,-0.701,-13.57,2.276C-13.779,2.392,-13.933,2.336,-14.142,2.452C-17.684,3.852,-21.226,5.252,-24.672,6.88C-24.503,6.365,-24.486,5.795,-24.317,5.28C-23.664,2.251,-22.117,-1.414,-21.247,-3.019C-5.596,-29.797,14.345,-53.475,31.26,-79.408C40.201,-93.064,49.1,-107.118,54.903,-122.685C59.142,-134.017,61.209,-148.639,65.705,-158.148C71.264,-168.807,77.933,-178.678,84.699,-188.321C85.626,-190.098,92.269,-197.287,93.985,-201.466C94.849,-208.262,85.896,-201.337,83.344,-200.345C60.173,-186.108,39.68,-166.476,23.209,-143.456C12.248,-129.383,1.632,-114.8,-5.748,-98.078C-19.292,-69.379,-24.637,-33.85,-37.101,-6.872C-40.992,1.32,-46.01,9.293,-50.657,15.095C-51.776,16.417,-51.447,17.498,-50.53,17.832C-60.392,22.311,-70.004,27.074,-79.673,32.008C-77.211,16.185,-68.093,-0.096,-59.618,-15.459C-49.629,-33.345,-40.903,-52.076,-32.33,-70.862C-26.649,-83.975,-21.371,-97.428,-18.596,-111.599C-14.98,-133.536,-14.511,-155.275,-9.704,-175.625C-8.075,-182.143,-6.083,-188.72,-3.537,-194.904C-2.578,-197.822,-0.588,-200.748,-1.271,-203.879C-1.946,-205.471,-4.024,-204.882,-5.183,-203.959C-8.05,-200.967,-9.92,-196.844,-12.537,-193.569C-20.784,-182.544,-31.794,-166.76,-40.203,-153.68C-57.473,-126.146,-73.206,-96.515,-80.53,-63.821C-85.966,-39.472,-85.915,-12.547,-90.481,10.197C-91.982,19.451,-93.387,28.934,-97.544,37.413C-97.657,37.756,-98.036,38.387,-97.979,38.215C-98.318,39.245,-99.38,40.395,-99.051,41.476C-98.955,41.704,-98.802,41.759,-98.649,41.815C-111.571,48.831,-124.203,56.53,-136.739,64.455C-136.577,62.4,-136.873,60.177,-136.349,58.062C-136.025,53.952,-134.244,47.491,-132.591,41.943C-128.19,28.556,-121.512,16.574,-116.523,2.44C-105.733,-23.61,-105.012,-52.368,-102.568,-80.113C-100.195,-110.767,-102.572,-141.037,-102.831,-171.497C-102.74,-176.461,-102.327,-181.884,-101.721,-186.852L-101.551,-187.367C-100.526,-192.567,-99.502,-197.767,-98.993,-202.963C-98.622,-205.134,-101.068,-206.025,-102.493,-204.815C-104.586,-203.656,-104.306,-200.862,-104.83,-198.747C-105.613,-194.804,-106.033,-190.922,-106.453,-187.039C-109.623,-171.666,-114.525,-155.194,-119.281,-140.206C-128.267,-115.997,-140.617,-93.013,-146.448,-67.463C-151.593,-46.083,-150.075,-23.62,-146.978,-2.312C-144.979,8.794,-142.536,16.987,-143.282,28.631C-143.287,39.584,-144.024,49.117,-146.459,58.608C-147.604,62.611,-148.998,66.331,-150.449,70.223C-150.618,70.738,-150.481,71.364,-150.232,71.647C-149.983,71.93,-149.524,72.097,-149.009,72.093C-157.873,77.704,-166.584,83.371,-175.352,89.21C-173.459,86.056,-171.816,82.619,-170.478,79.07C-164.668,65.043,-162.89,49.739,-161.016,34.663C-158.568,15.76,-158.069,-3.47,-161.553,-22.036C-164.145,-37.586,-169.233,-52.317,-172.606,-67.575C-176.236,-84.657,-178.079,-103.009,-178.151,-122.061C-178.118,-123.202,-177.988,-124.116,-177.859,-125.03C-177.319,-127.716,-176.835,-130.23,-176.504,-132.8C-180.358,-136.702,-182.033,-132.124,-182.721,-124.303C-186.183,-105.961,-192.664,-84.683,-194.404,-65.329C-196.349,-37.017,-193.255,-8.408,-187.497,18.866C-184.389,34.412,-177.224,48.553,-176.982,63.44C-176.825,72.338,-179.082,79.203,-181.767,88.411C-182.009,89.668,-183.185,91.162,-182.244,92.465L-181.938,92.576C-182.051,92.919,-182.164,93.263,-182.124,93.662C-221.89,120.88,-259.959,151.791,-293.652,188.14C-297.807,192.968,-302.173,197.913,-306.079,203.024C-306.909,205.028,-304.615,205.863,-303.15,205.052C-298.174,200.331,-294.235,194.078,-289.355,189.129C-251.313,148.406,-208.163,114.541,-161.828,84.527C-147.056,97.403,-135.965,114.705,-121.725,128.156C-94.073,153.412,-57.044,160.56,-24.631,176.019C-21.364,177.017,-16.157,180.451,-13.813,175.924C-13.587,175.237,-13.877,174.556,-14.279,174.217C-16.347,172.695,-18.584,171.688,-20.765,170.509C-33.656,163.891,-43.198,155.419,-53.592,144.329C-57.236,140.311,-60.937,136.464,-64.694,132.789C-59.392,136.45,-53.823,139.824,-48.255,143.198C-31.068,154.456,-9.702,161.855,7.858,167.291C25.98,174.662,41.655,184.792,55.549,197.733C58.784,199.872,61.76,203.839,65.559,204.262C71.58,202.612,66.407,198.036,64.163,195.489C45.394,176.544,29.185,154.496,8.596,137.963C-3.352,128.998,-14.658,122.766,-25.35,113.105C-36.936,104.08,-46.799,92.415,-59.029,84.308C-74.76,74.349,-93.294,72.401,-108.632,64.892C-113.05,62.706,-116.324,60.168,-119.599,57.63C-108.07,50.683,-96.653,44.08,-84.835,37.815C-82.075,40.358,-79.317,42.9,-76.557,45.443C-61.505,61.112,-44.044,73.623,-25.98,84.816C-11.915,93.591,3.697,98.702,17.005,108.739C46.124,129.532,69.948,164.349,100.918,185.24C108.747,190.591,116.197,196.572,124.139,201.579C127.39,203.148,131.968,206.93,135.117,203.08C136.382,200.274,132.978,198.65,131.635,197.007C127.13,192.483,122.472,187.903,118.498,182.804C98.09,156.343,79.657,127.526,54.466,106.242C27.795,82.689,-0.261,60.744,-31.588,45.104C-43.159,39.159,-54.851,32.017,-68.075,31.62C-69.468,31.689,-71.109,31.476,-72.598,31.318C-61.464,25.573,-49.983,20.337,-38.254,15.385C-34.655,13.813,-31.114,12.413,-27.515,10.841C-20.862,17.685,-16.713,27.461,-8.844,33.21C17.297,53.688,46.257,69.234,76.628,80.49C124.357,98.838,171.271,122.271,222.596,126.554C226.813,126.745,231.191,128.532,235.401,127.183C241.335,123.195,230.832,121.29,228.499,120.056C219.84,116.71,213.707,115.053,204.759,111.024C194.926,105.52,185.527,99.213,175.92,93.023C150.791,76.758,125.736,59.751,98.359,48.24C69.743,36.854,41.913,30.368,14.771,16.06C6.644,12.138,-1.219,7.929,-8.911,3.205C4.895,-2.336,18.589,-7.533,32.628,-12.22C33.094,-10.513,35.79,-9.338,36.884,-7.979C46.675,0.777,58.738,5.748,69.778,12.268C87.078,23.183,103.395,36.045,121.621,45.183C150.052,57.654,177.614,68.079,208.269,74.826C227.504,79.335,247.101,83.783,267.038,83.551C270.345,84.948,285.469,83.731,280.216,78.358Z" /></g></g></g></g></g><g id="Leafs 2"><g transform="translate(1349.824,1439.733)"><g transform="rotate(0)"><animateTransform repeatCount="indefinite" type="rotate" attributeName="transform" dur="6s" begin="0.667s" calcMode="spline" values="0; 5; 0; 5; 0" keyTimes="0; 0.25; 0.5; 0.75; 1" keySplines="0.333 0 0.667 1; 0.333 0 0.667 1; 0.333 0 0.667 1; 0.333 0 0.667 1" fill="freeze" /><g transform="scale(1,1) translate(109.091,-331.313)"><g id="Group 1"><path fill="url(#null)" d="M-71.471,119.329C-71.235,119.342,-71.08,119.231,-70.844,119.245C-70.608,119.258,-65.827,118.573,-67.473,118.839C-57.112,118.711,-46.301,116.454,-35.65,113.948C-33.613,113.585,-31.655,113.098,-29.697,112.611C-44.153,119.449,-57.96,128.36,-70.499,138.54C-73.382,140.77,-75.64,142.556,-77.979,144.219C-76.019,135.951,-73.823,127.695,-71.471,119.329ZM249.174,-236.517C230.319,-222.028,213.096,-209.242,193.828,-196.812C169.183,-180.378,142.053,-169.234,117.006,-153.781C92.655,-139.366,71.489,-120.34,48.414,-103.937C36.18,-94.698,20.879,-85.992,7.322,-75.631C10.021,-80.625,12.795,-85.854,15.65,-90.959C17.503,-94.086,19.276,-97.337,20.974,-100.353C26.126,-103.292,31.119,-106.478,36.032,-109.79C47.029,-117.065,58.023,-124.699,68.303,-133.092C91.662,-152.592,114.384,-173.086,134.967,-195.497C156.163,-219.43,170.035,-245.936,188.958,-269.519C195.319,-277.297,202.861,-284.649,209.229,-291.709C210.237,-292.968,210.687,-295.097,209.426,-295.648C206.994,-295.547,204.347,-293.304,201.845,-292.249C179.268,-281.085,157.741,-266.868,140.182,-248.235C117.8,-225.088,101.653,-198.593,77.435,-178.663C71.989,-173.706,64.744,-168.013,58.275,-163.234C62.176,-173.786,65.997,-184.463,69.19,-195.056C74.51,-212.95,77.082,-230.881,80.597,-248.758C85.365,-274.944,92.407,-301.479,93.568,-327.272C93.924,-330.963,93.989,-340.417,88.643,-333.179C83.169,-322.956,78.562,-312.444,72.538,-302.372C34.069,-246.621,12.156,-183.461,13.431,-125.205C13.668,-117.051,14.296,-108.994,16.175,-101.464C16.258,-100.98,16.342,-100.497,16.581,-100.124C11.104,-90.26,6.018,-80.494,0.856,-70.492C0.624,-70.146,0.548,-69.911,0.316,-69.565C-1.61,-65.844,-3.537,-62.123,-5.307,-58.513C-6.368,-62.644,-7.667,-67.147,-7.775,-70.146C-8.812,-79.902,-6.845,-87.453,-6.08,-97.585C-4.517,-122.397,-7.819,-147.008,-19.391,-166.463C-29.612,-184.165,-36.921,-201.223,-41.522,-222.196C-51.004,-236.624,-52.236,-137.687,-52.426,-133.029C-53.626,-111.189,-46.059,-91.962,-36.861,-74.438C-31.673,-65.642,-24.68,-56.863,-21.612,-48.188C-19.609,-44.003,-19.168,-39.07,-17.712,-34.677C-17.397,-34.54,-17.317,-34.415,-17.081,-34.402C-21.006,-26.365,-24.616,-18.19,-28.305,-10.14C-28.381,-9.905,-28.538,-9.794,-28.614,-9.559C-30.305,-5.824,-31.994,-2.09,-33.449,1.658C-33.688,1.285,-34.084,1.024,-34.323,0.651C-35.99,-1.24,-37.432,-4.196,-37.917,-5.66C-45.152,-31.093,-46.915,-58.969,-52.587,-85.151C-55.548,-98.968,-58.824,-112.922,-65.534,-124.797C-70.407,-133.455,-79.278,-141.622,-82.654,-149.716C-86.044,-159.247,-88.027,-169.417,-89.775,-179.573C-90.34,-181.162,-90.428,-190.145,-92.109,-193.473C-96.306,-197.184,-98.161,-186.277,-99.391,-183.593C-106.824,-156.96,-108.37,-130.351,-104.441,-105.824C-102.717,-90.043,-100.366,-74.345,-94.03,-60.576C-83.822,-36.17,-62.509,-16.04,-52.711,6.666C-49.817,13.655,-47.934,21.543,-47.32,28.163C-47.226,29.725,-46.205,29.903,-45.269,29.238C-49.561,39.888,-53.461,50.44,-57.282,61.117C-66.712,52.08,-71.412,36.966,-75.946,22.821C-81.132,6.244,-87.88,-9.585,-94.784,-25.302C-99.834,-36.005,-105.432,-46.501,-113.444,-55.098C-126.363,-67.806,-141.531,-77.649,-152.413,-90.72C-155.83,-94.985,-159.014,-99.597,-161.496,-104.527C-162.851,-106.639,-163.43,-109.664,-166.185,-110.42C-167.834,-110.514,-168.991,-108.425,-169.213,-107.001C-169.254,-103.172,-167.729,-99.733,-167.379,-96.002C-165.77,-83.939,-162.861,-67.372,-159.907,-54.274C-153.362,-27.084,-144.151,-0.341,-126.366,20.306C-113.107,35.667,-93.84,47.301,-81.066,61.198C-75.598,66.538,-69.894,71.891,-66.996,79.239C-66.837,79.487,-66.673,80.095,-66.753,79.971C-66.275,80.717,-66.261,82.154,-65.239,82.332C-65.003,82.346,-64.847,82.235,-64.691,82.124C-69.495,96.576,-73.593,111.068,-77.455,125.573C-78.799,124.539,-80.611,123.836,-81.724,122.456C-84.413,120.387,-87.674,116.011,-90.381,112.146C-96.598,102.454,-100.083,91.36,-106.387,80.825C-116.795,60,-136.782,46.889,-154.74,32.697C-174.829,17.306,-198.251,6.273,-220.2,-6.71C-223.676,-8.944,-227.234,-11.66,-230.322,-14.35L-230.562,-14.723C-233.497,-17.883,-236.432,-21.043,-239.755,-23.747C-241.023,-25.016,-243.519,-23.243,-243.737,-21.46C-244.499,-19.109,-242.291,-18.145,-241.179,-16.765C-238.958,-14.364,-236.503,-12.308,-234.05,-10.253C-225.48,-0.786,-217.44,10.687,-210.349,21.387C-199.886,39.821,-192.853,60.693,-179.036,76.924C-167.676,90.74,-150.481,99.144,-132.912,105.652C-123.462,108.705,-115.756,110.101,-108.007,115.81C-100.189,120.565,-93.941,125.351,-89.013,131.618C-87.024,134.365,-85.427,137.21,-83.749,140.179C-83.51,140.552,-82.959,140.702,-82.567,140.605C-82.176,140.508,-81.708,140.176,-81.32,139.719C-84.046,149.979,-86.616,160.128,-89.106,170.401C-89.921,167.362,-91.127,164.42,-92.645,161.7C-98.249,150.486,-107.827,142.278,-117.17,134.084C-128.81,123.724,-142.163,114.942,-158.068,109.965C-171.142,105.509,-185.526,103.611,-198.985,99.971C-213.941,95.767,-228.446,89.433,-242.106,81.232C-242.896,80.708,-243.45,80.197,-244.005,79.687C-245.512,78.045,-246.94,76.526,-248.524,75.119C-254.238,76.829,-252.241,80.295,-247.178,84.295C-236.709,95.307,-226.437,110.258,-213.937,120.189C-195.196,134.187,-172.416,143.865,-148.565,150.611C-135.103,154.611,-119.562,154.419,-108.747,160.662C-102.274,164.383,-99.086,169.354,-94.549,175.718C-93.835,176.477,-93.662,178.163,-92.016,177.897L-91.704,177.676C-91.545,177.925,-91.385,178.173,-91.07,178.311C-101.837,225.225,-108.678,272.244,-108.312,317.758C-108.02,323.521,-107.805,329.518,-107.122,335.184C-106.321,336.786,-103.982,335.124,-103.449,333.478C-103.041,327.037,-104.515,320.847,-104.342,314.392C-104.528,263.142,-95.937,210.357,-82.177,156.43C-61.762,148.974,-40.982,146.687,-20.56,139.949C18.479,126.491,51.709,96.899,87.369,74.987C90.564,72.535,96.969,69.428,95.517,65.395C95.198,64.898,94.491,64.858,93.944,65.066C91.286,66.232,88.868,67.77,86.37,69.184C71.852,77.695,58.554,82.444,42.74,86.81C37.103,88.285,31.545,89.883,26.067,91.606C32.709,88.513,39.347,85.061,45.986,81.608C67.08,71.317,88.593,55.663,105.813,42.517C124.842,29.714,143.981,20.27,163.776,13.616C167.761,11.688,172.855,10.782,176.042,7.611C179.437,1.579,172.24,4.163,168.716,5.039C140.931,13.392,112.875,18.138,85.43,29.144C69.952,35.804,56.913,43.082,41.893,48.332C26.648,54.646,10.827,58.294,-4.252,65.575C-23.312,75.144,-38.782,90.664,-55.794,100.948C-60.711,103.9,-65.011,105.69,-69.311,107.48C-65.515,94.288,-61.559,81.345,-57.056,68.193C-53.144,66.86,-49.232,65.526,-45.32,64.193C-22.697,57.701,-0.501,47.712,21.213,36.618C38.163,28.006,53.671,16.44,70.947,9.044C107.914,-7.645,150.872,-13.577,189.315,-31.858C199.082,-36.449,209.013,-40.432,218.621,-45.272C222.211,-47.462,228.388,-49.864,228.031,-54.314C226.988,-56.648,223.242,-54.347,221.049,-53.873C214.396,-51.858,207.588,-49.733,200.928,-48.436C166.531,-41.896,131.951,-38.12,97.617,-25.112C60.539,-11.781,23.557,3.47,-11.406,24.344C-24.441,31.981,-38.421,39.206,-48.749,50.709C-49.757,51.968,-51.157,53.325,-52.401,54.571C-48.047,42.249,-43.065,29.843,-37.692,17.339C-36.081,13.48,-34.391,9.745,-32.78,5.886C-22.839,2.981,-12.708,3.559,-2.625,-0.895C31.854,-15.092,64.954,-33.916,96.061,-55.848C145.417,-90.028,197.784,-121.284,239.827,-164.74C243.167,-168.38,247.768,-171.47,250.002,-175.772C251.661,-182.741,242.324,-174.295,239.67,-172.77C230.703,-166.577,224.862,-161.881,215.188,-155.728C203.789,-149.434,192.146,-143.872,180.428,-138.075C149.726,-122.944,118.549,-108.2,89.535,-89.023C59.669,-68.697,33.898,-46.941,3.065,-29.184C-5.909,-23.709,-14.886,-18.593,-24.103,-13.851C-17.573,-28.444,-10.883,-42.788,-3.567,-57.216C-1.994,-56.887,0.892,-58.758,2.694,-59.134C16.384,-63.98,29.096,-72.474,42.138,-79.393C63.073,-89.932,84.652,-98.759,105.022,-110.887C135.523,-130.578,163.902,-150.39,192.004,-174.528C209.833,-189.554,227.896,-204.926,242.873,-222.629C246.383,-224.943,257.001,-238.824,249.174,-236.517Z" /></g></g></g></g></g><g id="Body"><g transform="translate(1006.527,1611.874)"><g transform="rotate(-0.834)"><animateTransform repeatCount="indefinite" type="rotate" attributeName="transform" dur="6s" begin="0s" calcMode="spline" values="0; -2; 0; -2; 0" keyTimes="0; 0.25; 0.5; 0.75; 1" keySplines="0.333 0 0.667 1; 0.333 0 0.667 1; 0.333 0 0.667 1; 0.333 0 0.667 1" fill="freeze" /><g transform="scale(1,1) translate(180.928,-310.013)"><g id="Head"><g transform="translate(-38.549,-332.153)"><g transform="rotate(0)"><animateTransform repeatCount="indefinite" type="rotate" attributeName="transform" dur="3s" begin="0.667s" calcMode="spline" values="0; -2; 0" keyTimes="0; 0.5; 1" keySplines="0.333 0 0.667 1; 0.333 0 0.667 1" fill="freeze" /><g transform="scale(1,1) translate(-1148.905,-969.708)"><g id="Group 2" transform="matrix(1,0,0,1,1152.625,877.199)"><path fill="url(#null)" d="M5.87,-89.927C47.947,-89.927,78.622,-52.528,72.637,-1.763C68.387,34.211,28.256,94.797,-22.111,89.615C-63.918,85.311,-72.178,61.146,-73.345,4.196C-74.781,-65.886,-36.176,-89.927,5.87,-89.927Z" /></g><g id="Group 1" transform="matrix(1,0,0,1,1221.633,810.419)"><path fill="#000000" fill-opacity="1" d="M-45.021,-73.386C-47.043,-74.342,-49.106,-76.569,-50.764,-77.529C-55.658,-80.324,-61.158,-82.213,-66.618,-83.646C-93.837,-90.806,-119.762,-83.119,-141.926,-66.96C-167.083,-48.638,-186.9,-15.859,-175.333,14.913C-171.289,25.755,-161.541,33.598,-152.199,40.383C-135.9,52.197,-78.791,45.1,-110.055,39.673C-134.362,32.013,-55.294,50.362,-32.159,35.893C-32.159,60.813,-35.072,98.207,-4.374,108.299C-5.264,115.471,-1.584,122.717,2.178,128.682C18.76,154.941,51.844,157.931,80.034,148.128C122.986,133.183,154.492,89.614,155.22,45.841C155.665,18.2,142.359,-14.489,116.232,-28.403C116.475,-28.434,116.717,-28.465,116.96,-28.489C118.82,-28.684,120.761,-28.814,122.662,-28.806C124.523,-28.798,126.384,-28.661,128.244,-28.329C134.756,-27.099,139.527,-24,143.046,-19.799C148.506,-13.299,151.094,-4.292,153.44,4.114C155.786,12.645,158.496,20.761,163.107,27.753C166.221,32.493,170.225,36.705,175.564,40.199C176.494,40.789,177.748,40.531,178.395,39.629C179.002,38.723,178.718,37.517,177.788,36.928C172.773,33.91,168.971,30.182,165.938,25.942C161.246,19.36,158.416,11.594,155.908,3.45C153.279,-5.194,150.286,-14.344,144.624,-21.036C140.782,-25.568,135.726,-29.024,128.648,-30.426C126.706,-30.824,124.685,-31.015,122.703,-31.074C120.681,-31.129,118.698,-31.046,116.757,-30.89C115.261,-30.777,113.805,-30.575,112.349,-30.305C109.801,-31.418,107.172,-32.359,104.422,-33.112C119.387,-68.889,86.262,-98.685,51.642,-105.654C17.628,-112.502,-15.779,-99.087,-39.965,-76.396C-37.579,-82.119,-34.788,-87.5,-33.009,-91.556C-24.232,-111.1,-10.238,-128.051,7.315,-138.854C16.375,-144.417,26.364,-148.357,37.041,-150.172C47.152,-151.886,57.871,-151.695,68.993,-149.255C83.634,-145.98,94.594,-138.705,103.006,-129.039C111.499,-119.333,117.445,-107.227,122.217,-94.386C127.03,-81.424,132.247,-66.577,141.752,-56.688C148.345,-49.817,156.959,-45.285,168.769,-45.191C169.861,-45.191,170.791,-46.065,170.791,-47.143C170.791,-48.221,169.861,-49.095,168.769,-49.095C158.173,-49.013,150.367,-52.976,144.34,-59.051C134.998,-68.495,129.821,-82.862,124.968,-95.351C119.913,-108.43,113.643,-120.704,104.867,-130.542C96.009,-140.462,84.645,-147.923,69.478,-151.191C58.032,-153.698,47.031,-153.862,36.677,-152.144C25.717,-150.329,15.404,-146.377,6.061,-140.763C-12.058,-129.878,-26.699,-112.744,-35.961,-92.825C-38.347,-87.769,-42.23,-80.671,-45.021,-73.386Z" /></g></g></g></g></g></g></g></g></g><g id="Body"><g transform="translate(1006.527,1611.874)"><g transform="rotate(-0.834)"><animateTransform repeatCount="indefinite" type="rotate" attributeName="transform" dur="6s" begin="0s" calcMode="spline" values="0; -2; 0; -2; 0" keyTimes="0; 0.25; 0.5; 0.75; 1" keySplines="0.333 0 0.667 1; 0.333 0 0.667 1; 0.333 0 0.667 1; 0.333 0 0.667 1" fill="freeze" /><g transform="scale(1,1) translate(180.928,-310.013)"><g id="Hand Right"><g transform="translate(-127.918,-221.712)"><g transform="rotate(0)"><animateTransform repeatCount="indefinite" type="rotate" attributeName="transform" dur="3s" begin="0.667s" calcMode="spline" values="0; 10; 0" keyTimes="0; 0.5; 1" keySplines="0.333 0 0.667 1; 0.333 0 0.667 1" fill="freeze" /><g transform="scale(1,1) translate(-1059.537,-1080.149)"><g id="Group 1" transform="matrix(1,0,0,1,838.306,1197.321)"><path fill="url(#null)" d="M288.132,-140.063C328.587,-49.588,57.518,240.297,-32.845,232.857C-123.229,225.379,-254.135,-184.851,-254.135,-184.851L-292.218,-232.997L-191.754,-220.723L-198.748,-207.558C-198.748,-207.558,-57.063,30.537,-18.556,48.362C0.588,57.235,50.502,-88.506,156.447,-146.455C271.975,-209.59,264.994,-191.814,288.132,-140.063Z" /></g><g id="Group 2" transform="matrix(1,0,0,1,1010.742,1121.242)"><path fill="url(#null)" d="M-137.125,-3.55C-107.292,-7.7,-57.885,0.069,-40.955,26.734C-31.248,42.016,-34.435,60.217,-29.8,76.94C-19.48,114.214,16.512,150.035,58.942,148.553C110.87,146.786,127.728,79.722,137.567,41.609C150.759,-9.696,163.824,-75.504,119.318,-116.313C111.365,-123.613,102.238,-129.387,92.429,-134.037C79.405,-140.233,65.513,-144.294,51.21,-146.506C33.355,-149.271,14.754,-149.388,-3.076,-146.299C-32.388,-141.171,-59.645,-126.775,-82.317,-108.421C-111.698,-84.551,-133.112,-55.119,-150.123,-22.117L-137.125,-3.55Z" /></g></g></g></g></g></g></g></g></g><g id="Body"><g transform="translate(1006.527,1611.874)"><g transform="rotate(-0.834)"><animateTransform repeatCount="indefinite" type="rotate" attributeName="transform" dur="6s" begin="0s" calcMode="spline" values="0; -2; 0; -2; 0" keyTimes="0; 0.25; 0.5; 0.75; 1" keySplines="0.333 0 0.667 1; 0.333 0 0.667 1; 0.333 0 0.667 1; 0.333 0 0.667 1" fill="freeze" /><g transform="scale(1,1) translate(180.928,-310.013)"><g id="Hand Right"><g transform="translate(-127.918,-221.712)"><g transform="rotate(0)"><animateTransform repeatCount="indefinite" type="rotate" attributeName="transform" dur="3s" begin="0.667s" calcMode="spline" values="0; 10; 0" keyTimes="0; 0.5; 1" keySplines="0.333 0 0.667 1; 0.333 0 0.667 1" fill="freeze" /><g transform="scale(1,1) translate(-1059.537,-1080.149)"><g transform="matrix(1,0,0,1,0,0)" id="Hand Right 2"><g id="Group 1" transform="matrix(1,0,0,1,838.306,1197.321)"><path fill="url(#null)" d="M288.132,-140.063C328.587,-49.588,57.518,240.297,-32.845,232.857C-123.229,225.379,-254.135,-184.851,-254.135,-184.851L-292.218,-232.997L-191.754,-220.723L-198.748,-207.558C-198.748,-207.558,-57.063,30.537,-18.556,48.362C0.588,57.235,50.502,-88.506,156.447,-146.455C271.975,-209.59,264.994,-191.814,288.132,-140.063Z" /></g></g></g></g></g></g></g></g></g></g><g id="Body"><g transform="translate(1006.527,1611.874)"><g transform="rotate(-0.834)"><animateTransform repeatCount="indefinite" type="rotate" attributeName="transform" dur="6s" begin="0s" calcMode="spline" values="0; -2; 0; -2; 0" keyTimes="0; 0.25; 0.5; 0.75; 1" keySplines="0.333 0 0.667 1; 0.333 0 0.667 1; 0.333 0 0.667 1; 0.333 0 0.667 1" fill="freeze" /><g transform="scale(1,1) translate(180.928,-310.013)"><g id="Group 1"><path fill="url(#null)" d="M-2.145,-309.233C139.776,-297.181,187.753,-294.15,180.162,-40.849C177.513,48.238,160.829,192.653,105.335,244.068C-0.068,341.724,-176.218,302.033,-176.218,302.033C-176.218,302.033,-127.455,46.824,-168.915,-90.949C-219.039,-257.256,-102.393,-317.751,-2.145,-309.233Z" /></g></g></g></g></g><g id="Body"><g transform="translate(1006.527,1611.874)"><g transform="rotate(-0.834)"><animateTransform repeatCount="indefinite" type="rotate" attributeName="transform" dur="6s" begin="0s" calcMode="spline" values="0; -2; 0; -2; 0" keyTimes="0; 0.25; 0.5; 0.75; 1" keySplines="0.333 0 0.667 1; 0.333 0 0.667 1; 0.333 0 0.667 1; 0.333 0 0.667 1" fill="freeze" /><g transform="scale(1,1) translate(180.928,-310.013)"><g id="Hand Right"><g transform="translate(-127.918,-221.712)"><g transform="rotate(0)"><animateTransform repeatCount="indefinite" type="rotate" attributeName="transform" dur="3s" begin="0.667s" calcMode="spline" values="0; 10; 0" keyTimes="0; 0.5; 1" keySplines="0.333 0 0.667 1; 0.333 0 0.667 1" fill="freeze" /><g transform="scale(1,1) translate(-1059.537,-1080.149)"><g id="Phone"><g transform="translate(712.561,1074.233)"><g transform="rotate(0)"><animateTransform repeatCount="indefinite" type="rotate" attributeName="transform" dur="3s" begin="0.667s" calcMode="spline" values="0; -5; 0" keyTimes="0; 0.5; 1" keySplines="0.333 0 0.667 1; 0.333 0 0.667 1" fill="freeze" /><g transform="scale(1,1) translate(-712.56,-1074.233)"><g id="Group 14" transform="matrix(1,0,0,1,704.729,1084.019)"><path fill="url(#null)" d="M127.728,-383.812C113.688,-426.738,70.05,-451.761,30.323,-439.653L-286.387,-343.128C-326.085,-331.029,-346.925,-286.355,-332.885,-243.429L-127.728,383.808C-113.689,426.73,-70.049,451.756,-30.351,439.657L286.358,343.132C326.085,331.024,346.925,286.346,332.886,243.424L127.728,-383.812Z" /></g><g id="Group 13" transform="matrix(1,0,0,1,716.033,1068.186)"><path fill="url(#null)" d="M130.561,-387.243C116.416,-430.489,72.19,-455.617,31.843,-443.32L-289.812,-345.288C-330.13,-333,-351.39,-287.914,-337.245,-244.668L-130.56,387.238C-116.416,430.48,-72.189,455.612,-31.871,443.324L289.784,345.292C330.131,332.995,351.39,287.905,337.246,244.663L130.561,-387.243Z" /></g><g id="Group 12" transform="matrix(1,0,0,1,716.035,1068.183)"><path fill="#ffffff" fill-opacity="1" d="M124.954,-358.161C111.923,-398,70.527,-420.949,32.551,-409.375L-270.198,-317.105C-308.146,-305.539,-328.386,-263.805,-315.355,-223.966L-124.953,358.157C-111.924,397.992,-70.526,420.944,-32.578,409.379L270.171,317.109C308.147,305.535,328.385,263.797,315.356,223.962L124.954,-358.161Z" /></g><g id="Group 11" transform="matrix(1,0,0,1,727.697,1103.829)"><path fill="#e3e3fe" fill-opacity="1" d="M-47.239,-144.424C13.299,-162.874,83.525,-113.17,109.614,-33.407C135.703,46.356,107.777,125.973,47.239,144.424C-13.299,162.874,-83.525,113.17,-109.614,33.407C-135.703,-46.356,-107.777,-125.974,-47.239,-144.424Z" /></g><g id="Group 10" transform="matrix(1,0,0,1,0,0)"><g id="Group 6" transform="matrix(1,0,0,1,690.947,1132.144)"><path fill="#6562f9" fill-opacity="1" d="M64.929,119.929C63.698,111.17,60.67,102.572,57.794,93.595C52.814,78.371,46.766,62.686,42.544,46.769C39.613,35.806,37.563,24.727,37.268,13.601C37.052,6.723,37.981,0.142,39.622,-6.27C45.802,-30.276,62.522,-51.532,61.382,-77.073C60.947,-86.018,57.485,-98.209,50.513,-105.687C46.294,-110.168,40.716,-112.785,33.623,-111.218C23.292,-108.917,16.903,-101.59,12.218,-92.655C4.526,-78.082,1.223,-59.313,-4.46,-47.017C-12.58,-29.338,-26.186,-16.007,-42.673,-7.273C-52.149,-2.253,-62.576,1.223,-73.503,3.103L-76.685,-8.071C-66.53,-9.425,-56.78,-12.328,-47.938,-16.752C-33.229,-24.109,-20.99,-35.605,-13.5,-50.997C-6.501,-65.485,-2.374,-88.954,8.94,-104.081C14.548,-111.595,21.822,-117.224,31.704,-119.286C42.254,-121.514,50.566,-117.756,56.746,-111.094C64.887,-102.239,69.158,-87.981,69.651,-77.447C70.05,-70.618,69.184,-64.038,67.674,-57.634C62.026,-33.803,45.566,-12.354,46.738,13.279C47.194,23.698,49.391,34.023,52.337,44.234C56.87,59.892,63.212,75.277,68.497,90.231C71.763,99.679,75.118,108.741,76.685,117.997L64.929,119.929Z" /></g><g id="Group 5" transform="matrix(1,0,0,1,679.714,1172.357)"><path fill="#6562f9" fill-opacity="1" d="M8.811,60.559C6.699,46.885,7.268,32.843,10.955,19.778C14.361,7.34,20.624,-4.386,24.888,-16.611C26.611,-21.567,27.978,-26.611,28.694,-31.836C29.091,-35.432,28.312,-47.241,24.836,-54.859C23.734,-57.226,22.656,-59.322,20.752,-59.729C19.766,-59.935,18.744,-59.452,17.45,-58.596C13.571,-56.021,11.158,-51.57,9.16,-46.65C5.842,-38.353,4.073,-28.725,1.555,-22.191C-3.476,-9.106,-12.165,6.031,-23.55,17.736C-25.745,19.997,-28.041,22.123,-30.431,24.084L-37.119,14.918C-33.376,12.008,-29.861,8.631,-26.605,4.988C-18.22,-4.461,-11.649,-15.648,-7.417,-25.565C-4.207,-33.19,-1.912,-45.016,2.874,-54.045C5.386,-58.792,8.526,-62.826,12.65,-65.45C16.119,-67.678,19.216,-68.236,21.906,-67.828C25.016,-67.345,27.777,-65.515,29.928,-62.55C36.032,-54.308,37.587,-35.926,37.006,-30.888C36.275,-25.101,34.822,-19.519,33.074,-14.036C29.097,-1.937,23.214,9.749,20.215,22.032C17.226,34.343,17.214,47.538,19.793,60.234C20.332,62.833,20.986,65.41,21.751,67.951L8.811,60.559Z" /></g><g id="Group 4" transform="matrix(1,0,0,1,723.439,1046.391)"><path fill="#6562f9" fill-opacity="1" d="M-49.513,-18.113C-45.802,-33.233,-33.689,-45.717,-19.418,-51.402C-4.794,-57.213,12,-55.989,24.295,-43.659C29.371,-38.364,33.607,-32.628,37.046,-26.53C42.333,-17.178,45.728,-6.998,47.786,3.503C51.299,21.061,50.918,39.54,48.776,57.049C48.482,60.36,51.016,63.297,54.458,63.596C57.9,63.895,60.965,61.435,61.259,58.124C62.517,39.517,61.767,19.984,57.246,1.55C54.546,-9.71,50.416,-20.535,44.459,-30.525C40.595,-37.126,35.928,-43.376,30.375,-49.127C15.724,-64.651,-4.782,-66.598,-22.944,-60.177C-40.693,-53.9,-56.085,-39.41,-61.604,-21.201C-62.456,-17.992,-60.516,-14.664,-57.157,-13.821C-53.799,-12.977,-50.363,-14.898,-49.513,-18.113Z" /></g><g id="Group 3" transform="matrix(1,0,0,1,766.031,1170.025)"><path fill="#6562f9" fill-opacity="1" d="M-7.048,-39.873C-9.093,-33.496,-10.014,-26.892,-10.147,-20.079C-10.201,-15.834,-10.039,-11.534,-9.606,-7.204C-9.373,-4.686,-9.071,-2.158,-8.766,0.376C-8.325,4.134,-7.818,7.892,-7.25,11.631C-5.805,21.261,-3.968,30.683,-2.13,39.314C-1.21,42.528,2.286,44.393,5.6,43.503C8.918,42.618,10.847,39.296,9.927,36.082C7.448,29.305,4.745,22.04,2.641,14.408C1.269,9.611,0.119,4.688,-0.52,-0.27C-1.152,-5.211,-1.265,-10.17,-0.888,-15.032C-0.368,-22.261,1.509,-29.15,4.608,-35.513C5.825,-38.612,4.221,-42.111,1.008,-43.315C-2.205,-44.52,-5.832,-42.972,-7.048,-39.873Z" /></g><g id="Group 2" transform="matrix(1,0,0,1,800.062,1108.286)"><path fill="#6562f9" fill-opacity="1" d="M-0.564,56.314C3.68,43.431,6.995,30.109,9.17,16.711C10.093,11.315,10.823,5.928,11.414,0.519C11.742,-3.088,12.068,-6.706,12.323,-10.335C13.354,-25.632,12.349,-40.928,8.13,-56.036C7.091,-59.213,3.564,-60.975,0.284,-59.975C-2.996,-58.975,-4.835,-55.579,-3.796,-52.402C0.048,-42.256,2.452,-31.893,3.276,-21.358C3.906,-14.22,3.903,-7.009,3.102,0.166C2.361,7.323,0.883,14.432,-1.02,21.443C-3.875,31.96,-7.886,42.152,-12.302,52.106C-13.511,55.228,-11.849,58.703,-8.645,59.879C-5.382,61.03,-1.833,59.454,-0.564,56.314Z" /></g><g id="Group 1" transform="matrix(1,0,0,1,644.318,1062.964)"><path fill="#6562f9" fill-opacity="1" d="M-5.197,26.509C-2.141,22.014,0.317,17.303,2.565,12.345C3.541,10.117,4.511,7.871,5.478,5.614C6.45,3.374,7.424,1.135,8.396,-1.105C9.547,-3.798,10.645,-6.455,11.728,-9.159C13.39,-13.299,14.873,-17.384,16.206,-21.531C16.843,-24.795,14.684,-27.986,11.267,-28.609C7.91,-29.25,4.612,-27.106,3.915,-23.824C3.5,-19.077,2.974,-14.27,1.909,-9.508C1.161,-6.381,0.283,-3.252,-0.912,-0.293C-2.172,2.674,-3.753,5.459,-5.563,8.144C-8.198,12.118,-11.401,15.556,-14.91,18.86C-17.086,21.429,-16.695,25.234,-14.036,27.348C-11.375,29.468,-7.433,29.095,-5.197,26.509Z" /></g></g><g id="Group 9" transform="matrix(1,0,0,1,903.526,1227.828)"><path fill="#e3e3fe" fill-opacity="1" d="M16.116,-37.34L27.893,-1.332C31.554,9.862,25.118,21.806,13.526,25.339L-25.851,37.34L-28.92,27.955L10.456,15.954C16.696,14.052,20.158,7.638,18.191,1.625L6.414,-34.383L16.116,-37.34Z" /></g><g id="Group 8" transform="matrix(1,0,0,1,661.466,1305.133)"><path fill="#e3e3fe" fill-opacity="1" d="M-29.666,-26.917L-17.889,9.09C-15.922,15.102,-9.295,18.443,-3.055,16.541L36.321,4.54L39.391,13.925L0.014,25.926C-11.578,29.459,-23.953,23.248,-27.614,12.054L-39.391,-23.953L-29.666,-26.917Z" /></g><g id="Group 7" transform="matrix(1,0,0,1,557.596,997.434)"><path fill="#e3e3fe" fill-opacity="1" d="M25.851,-37.34L28.92,-27.955L-10.456,-15.954C-16.696,-14.052,-20.136,-7.644,-18.169,-1.632L-6.391,34.376L-16.116,37.34L-27.893,1.332C-31.554,-9.862,-25.118,-21.806,-13.526,-25.339L25.851,-37.34Z" /></g><g id="Group 6" transform="matrix(1,0,0,1,799.656,920.126)"><path fill="#e3e3fe" fill-opacity="1" d="M-39.391,-13.921L-0.015,-25.922C11.577,-29.455,23.953,-23.245,27.614,-12.051L39.391,23.957L29.689,26.914L17.912,-9.094C15.945,-15.107,9.295,-18.439,3.055,-16.537L-36.321,-4.536L-39.391,-13.921Z" /></g><g id="Group 5" transform="matrix(1,0,0,1,0,0)"><g id="Group 15" transform="matrix(1,0,0,1,671.425,1378.375)"><path fill="#20238c" fill-opacity="1" d="M-2.801,-8.589C-3.391,-8.409,-3.861,-8.065,-4.215,-7.56C-4.539,-7.064,-4.681,-6.31,-4.641,-5.296C-4.569,-3.985,-4.079,-1.891,-3.141,0.977C-2.203,3.845,-1.411,5.769,-0.766,6.752C-0.091,7.726,0.497,8.332,1.085,8.544C1.644,8.765,2.231,8.78,2.821,8.6C3.41,8.42,3.853,8.088,4.207,7.583C4.56,7.078,4.701,6.321,4.632,5.316C4.593,4.007,4.076,1.931,3.138,-0.937C2.2,-3.805,1.409,-5.729,0.763,-6.712C0.117,-7.695,-0.501,-8.294,-1.061,-8.521C-1.651,-8.739,-2.212,-8.769,-2.801,-8.589ZM-4.071,-12.472C-1.625,-13.218,0.568,-12.957,2.506,-11.689C4.811,-10.192,6.721,-7.126,8.237,-2.491C9.749,2.133,9.981,5.717,8.992,8.243C8.181,10.324,6.538,11.74,4.092,12.486C1.616,13.241,-0.658,12.927,-2.759,11.558C-4.89,10.196,-6.692,7.163,-8.227,2.471C-9.732,-2.13,-9.99,-5.694,-9.001,-8.22C-8.161,-10.31,-6.518,-11.726,-4.071,-12.472Z" /></g><g id="Group 14" transform="matrix(1,0,0,1,691.098,1372.381)"><path fill="#20238c" fill-opacity="1" d="M-2.814,-8.587C-3.403,-8.407,-3.874,-8.063,-4.198,-7.567C-4.552,-7.062,-4.694,-6.308,-4.654,-5.294C-4.582,-3.983,-4.062,-1.898,-3.124,0.97C-2.186,3.838,-1.395,5.762,-0.749,6.745C-0.104,7.728,0.513,8.325,1.072,8.546C1.63,8.767,2.219,8.782,2.808,8.602C3.398,8.422,3.87,8.081,4.194,7.585C4.548,7.08,4.689,6.323,4.649,5.309C4.58,4.01,4.092,1.924,3.154,-0.944C2.216,-3.812,1.425,-5.736,0.779,-6.719C0.104,-7.693,-0.484,-8.302,-1.074,-8.519C-1.634,-8.746,-2.224,-8.767,-2.814,-8.587ZM-4.084,-12.47C-1.637,-13.216,0.555,-12.955,2.493,-11.687C4.798,-10.19,6.708,-7.124,8.224,-2.489C9.736,2.135,9.998,5.71,9.009,8.236C8.169,10.325,6.526,11.742,4.079,12.488C1.633,13.234,-0.671,12.928,-2.772,11.56C-4.874,10.189,-6.705,7.165,-8.24,2.473C-9.745,-2.128,-10.002,-5.692,-8.984,-8.227C-8.174,-10.308,-6.53,-11.724,-4.084,-12.47Z" /></g><g id="Group 13" transform="matrix(1,0,0,1,710.358,1365.641)"><path fill="#20238c" fill-opacity="1" d="M8.558,11.534L3.724,13.007L-2.051,-4.648C-3.296,-2.51,-5.002,-0.689,-7.168,0.816L-8.558,-3.434C-7.422,-4.221,-6.284,-5.401,-5.176,-6.968C-4.039,-8.544,-3.462,-10.153,-3.389,-11.812L0.531,-13.007L8.558,11.534Z" /></g><g id="Group 12" transform="matrix(1,0,0,1,728.088,1360.238)"><path fill="#20238c" fill-opacity="1" d="M8.573,11.529L3.709,13.011L-2.065,-4.644C-3.311,-2.506,-5.016,-0.684,-7.182,0.821L-8.573,-3.43C-7.437,-4.217,-6.298,-5.397,-5.19,-6.964C-4.053,-8.54,-3.477,-10.149,-3.404,-11.808L0.546,-13.011L8.573,11.529Z" /></g><g id="Group 11" transform="matrix(1,0,0,1,745.802,1354.839)"><path fill="#20238c" fill-opacity="1" d="M8.573,11.529L3.709,13.011L-2.065,-4.644C-3.311,-2.506,-5.017,-0.684,-7.182,0.821L-8.573,-3.43C-7.437,-4.217,-6.298,-5.397,-5.161,-6.973C-4.053,-8.54,-3.477,-10.149,-3.404,-11.808L0.546,-13.011L8.573,11.529Z" /></g><g id="Group 10" transform="matrix(1,0,0,1,765.878,1349.59)"><path fill="#20238c" fill-opacity="1" d="M-2.814,-8.587C-3.403,-8.407,-3.845,-8.072,-4.198,-7.567C-4.552,-7.062,-4.695,-6.308,-4.625,-5.303C-4.582,-3.983,-4.062,-1.898,-3.124,0.97C-2.186,3.838,-1.395,5.762,-0.749,6.745C-0.104,7.728,0.513,8.325,1.072,8.546C1.66,8.758,2.219,8.782,2.808,8.602C3.398,8.422,3.869,8.081,4.223,7.576C4.547,7.08,4.689,6.323,4.649,5.309C4.58,4.01,4.092,1.924,3.154,-0.944C2.216,-3.812,1.425,-5.736,0.779,-6.719C0.134,-7.702,-0.484,-8.302,-1.074,-8.519C-1.634,-8.746,-2.224,-8.767,-2.814,-8.587ZM-4.084,-12.47C-1.637,-13.216,0.555,-12.955,2.493,-11.687C4.798,-10.19,6.708,-7.124,8.224,-2.489C9.736,2.135,9.998,5.71,9.009,8.236C8.169,10.326,6.526,11.743,4.079,12.489C1.633,13.234,-0.671,12.929,-2.772,11.56C-4.874,10.189,-6.705,7.165,-8.24,2.473C-9.745,-2.128,-10.002,-5.692,-8.984,-8.227C-8.174,-10.308,-6.53,-11.724,-4.084,-12.47Z" /></g><g id="Group 9" transform="matrix(1,0,0,1,785.55,1343.591)"><path fill="#20238c" fill-opacity="1" d="M-2.796,-8.589C-3.385,-8.409,-3.856,-8.065,-4.21,-7.56C-4.534,-7.064,-4.676,-6.31,-4.636,-5.296C-4.564,-3.985,-4.073,-1.891,-3.135,0.977C-2.197,3.845,-1.407,5.769,-0.761,6.752C-0.115,7.735,0.502,8.332,1.09,8.544C1.649,8.765,2.237,8.78,2.826,8.6C3.415,8.42,3.858,8.088,4.212,7.583C4.566,7.078,4.707,6.321,4.637,5.316C4.598,4.007,4.081,1.931,3.143,-0.937C2.205,-3.805,1.413,-5.729,0.768,-6.712C0.122,-7.695,-0.496,-8.294,-1.056,-8.521C-1.646,-8.739,-2.207,-8.769,-2.796,-8.589ZM-4.066,-12.472C-1.62,-13.218,0.573,-12.957,2.511,-11.689C4.816,-10.192,6.697,-7.117,8.213,-2.482C9.725,2.142,9.987,5.717,8.998,8.243C8.187,10.324,6.543,11.741,4.097,12.487C1.621,13.242,-0.653,12.927,-2.754,11.558C-4.885,10.196,-6.687,7.163,-8.222,2.471C-9.727,-2.13,-9.985,-5.694,-8.996,-8.22C-8.156,-10.31,-6.542,-11.717,-4.066,-12.472Z" /></g><g id="Group 8" transform="matrix(1,0,0,1,805.228,1337.599)"><path fill="#20238c" fill-opacity="1" d="M-2.814,-8.589C-3.404,-8.409,-3.874,-8.065,-4.198,-7.569C-4.552,-7.064,-4.694,-6.31,-4.654,-5.296C-4.582,-3.985,-4.092,-1.891,-3.154,0.977C-2.216,3.845,-1.424,5.769,-0.749,6.743C-0.103,7.726,0.513,8.323,1.072,8.544C1.631,8.765,2.218,8.78,2.808,8.6C3.397,8.42,3.869,8.079,4.193,7.583C4.547,7.078,4.688,6.321,4.648,5.307C4.58,4.007,4.092,1.922,3.154,-0.946C2.216,-3.814,1.426,-5.738,0.75,-6.712C0.105,-7.695,-0.484,-8.304,-1.074,-8.521C-1.634,-8.748,-2.225,-8.769,-2.814,-8.589ZM-4.084,-12.473C-1.638,-13.219,0.555,-12.957,2.493,-11.689C4.798,-10.192,6.708,-7.126,8.224,-2.491C9.736,2.133,9.998,5.708,9.009,8.234C8.169,10.324,6.526,11.74,4.08,12.486C1.604,13.241,-0.671,12.927,-2.772,11.558C-4.874,10.187,-6.705,7.163,-8.24,2.471C-9.745,-2.13,-10.002,-5.694,-8.984,-8.229C-8.173,-10.31,-6.531,-11.727,-4.084,-12.473Z" /></g><g id="Group 7" transform="matrix(1,0,0,1,824.488,1330.857)"><path fill="#20238c" fill-opacity="1" d="M8.558,11.534L3.724,13.007L-2.051,-4.648C-3.296,-2.51,-5.002,-0.689,-7.168,0.816L-8.558,-3.434C-7.422,-4.222,-6.284,-5.401,-5.176,-6.968C-4.068,-8.535,-3.463,-10.153,-3.389,-11.812L0.531,-13.007L8.558,11.534Z" /></g><g id="Group 6" transform="matrix(1,0,0,1,842.203,1325.458)"><path fill="#20238c" fill-opacity="1" d="M8.558,11.534L3.724,13.007L-2.051,-4.648C-3.296,-2.51,-5.003,-0.689,-7.168,0.816L-8.558,-3.435C-7.422,-4.223,-6.284,-5.401,-5.176,-6.968C-4.039,-8.544,-3.462,-10.153,-3.389,-11.812L0.531,-13.007L8.558,11.534Z" /></g><g id="Group 5" transform="matrix(1,0,0,1,859.933,1320.055)"><path fill="#20238c" fill-opacity="1" d="M8.573,11.529L3.709,13.011L-2.065,-4.644C-3.31,-2.506,-5.016,-0.684,-7.182,0.821L-8.573,-3.43C-7.437,-4.217,-6.299,-5.397,-5.191,-6.964C-4.054,-8.54,-3.477,-10.149,-3.404,-11.808L0.546,-13.011L8.573,11.529Z" /></g><g id="Group 4" transform="matrix(1,0,0,1,877.648,1314.656)"><path fill="#20238c" fill-opacity="1" d="M8.573,11.529L3.709,13.011L-2.066,-4.644C-3.311,-2.506,-5.017,-0.684,-7.182,0.821L-8.573,-3.43C-7.408,-4.226,-6.298,-5.397,-5.161,-6.973C-4.053,-8.54,-3.477,-10.149,-3.404,-11.808L0.546,-13.011L8.573,11.529Z" /></g><g id="Group 3" transform="matrix(1,0,0,1,897.723,1309.406)"><path fill="#20238c" fill-opacity="1" d="M-2.814,-8.585C-3.404,-8.405,-3.844,-8.07,-4.198,-7.565C-4.552,-7.06,-4.695,-6.306,-4.625,-5.301C-4.582,-3.981,-4.062,-1.896,-3.124,0.972C-2.186,3.84,-1.395,5.764,-0.749,6.747C-0.104,7.73,0.513,8.327,1.072,8.548C1.66,8.76,2.218,8.784,2.808,8.604C3.397,8.424,3.87,8.083,4.223,7.578C4.547,7.082,4.688,6.325,4.648,5.311C4.58,4.011,4.092,1.926,3.154,-0.942C2.216,-3.81,1.425,-5.734,0.779,-6.717C0.134,-7.7,-0.484,-8.3,-1.074,-8.517C-1.634,-8.744,-2.225,-8.765,-2.814,-8.585ZM-4.084,-12.469C-1.608,-13.224,0.555,-12.953,2.493,-11.685C4.798,-10.188,6.708,-7.122,8.224,-2.487C9.736,2.137,9.998,5.712,9.009,8.238C8.169,10.328,6.556,11.735,4.08,12.49C1.633,13.236,-0.671,12.931,-2.772,11.562C-4.874,10.191,-6.705,7.167,-8.24,2.475C-9.745,-2.126,-10.002,-5.69,-8.984,-8.225C-8.174,-10.306,-6.531,-11.723,-4.084,-12.469Z" /></g><g id="Group 2" transform="matrix(1,0,0,1,917.4,1303.408)"><path fill="#20238c" fill-opacity="1" d="M-2.801,-8.589C-3.39,-8.409,-3.862,-8.065,-4.215,-7.56C-4.539,-7.064,-4.682,-6.31,-4.642,-5.296C-4.57,-3.985,-4.079,-1.891,-3.141,0.977C-2.203,3.845,-1.411,5.769,-0.765,6.752C-0.12,7.735,0.497,8.332,1.085,8.544C1.644,8.765,2.232,8.78,2.821,8.6C3.411,8.42,3.852,8.088,4.206,7.583C4.56,7.078,4.702,6.321,4.632,5.316C4.593,4.007,4.076,1.931,3.138,-0.937C2.2,-3.805,1.409,-5.729,0.763,-6.712C0.118,-7.695,-0.501,-8.294,-1.061,-8.521C-1.651,-8.739,-2.211,-8.769,-2.801,-8.589ZM-4.071,-12.472C-1.624,-13.218,0.567,-12.957,2.506,-11.689C4.811,-10.192,6.721,-7.126,8.237,-2.491C9.749,2.133,9.982,5.717,8.993,8.243C8.182,10.324,6.539,11.741,4.092,12.487C1.616,13.242,-0.658,12.927,-2.759,11.558C-4.89,10.196,-6.692,7.163,-8.227,2.471C-9.732,-2.13,-9.99,-5.694,-9.001,-8.22C-8.161,-10.31,-6.517,-11.726,-4.071,-12.472Z" /></g><g id="Group 1" transform="matrix(1,0,0,1,937.073,1297.417)"><path fill="#20238c" fill-opacity="1" d="M-2.814,-8.589C-3.404,-8.409,-3.874,-8.065,-4.198,-7.569C-4.552,-7.064,-4.694,-6.31,-4.654,-5.296C-4.582,-3.985,-4.092,-1.891,-3.154,0.977C-2.216,3.845,-1.395,5.76,-0.749,6.743C-0.104,7.726,0.513,8.323,1.072,8.544C1.631,8.765,2.218,8.78,2.808,8.6C3.397,8.42,3.87,8.079,4.194,7.583C4.547,7.078,4.689,6.321,4.649,5.307C4.581,4.008,4.092,1.922,3.154,-0.946C2.216,-3.814,1.425,-5.738,0.75,-6.712C0.104,-7.695,-0.514,-8.294,-1.074,-8.521C-1.634,-8.748,-2.225,-8.769,-2.814,-8.589ZM-4.084,-12.472C-1.638,-13.218,0.555,-12.957,2.493,-11.689C4.798,-10.192,6.708,-7.126,8.224,-2.491C9.736,2.133,9.998,5.708,9.009,8.234C8.169,10.324,6.526,11.741,4.08,12.487C1.604,13.242,-0.671,12.927,-2.772,11.558C-4.874,10.187,-6.705,7.163,-8.24,2.471C-9.745,-2.13,-10.003,-5.693,-8.985,-8.228C-8.174,-10.309,-6.531,-11.726,-4.084,-12.472Z" /></g></g><g id="Group 4" transform="matrix(1,0,0,1,0,0)"><g id="Group 15" transform="matrix(1,0,0,1,683.979,1417.242)"><path fill="#20238c" fill-opacity="1" d="M8.573,11.529L3.709,13.011L-2.065,-4.644C-3.311,-2.506,-5.017,-0.684,-7.182,0.821L-8.573,-3.43C-7.437,-4.217,-6.299,-5.397,-5.191,-6.964C-4.054,-8.54,-3.477,-10.149,-3.404,-11.808L0.546,-13.011L8.573,11.529Z" /></g><g id="Group 14" transform="matrix(1,0,0,1,701.708,1411.843)"><path fill="#20238c" fill-opacity="1" d="M8.558,11.529L3.694,13.011L-2.08,-4.644C-3.325,-2.506,-5.032,-0.684,-7.168,0.812L-8.558,-3.439C-7.422,-4.227,-6.313,-5.397,-5.176,-6.973C-4.068,-8.54,-3.462,-10.158,-3.418,-11.808L0.531,-13.011L8.558,11.529Z" /></g><g id="Group 13" transform="matrix(1,0,0,1,719.423,1406.444)"><path fill="#20238c" fill-opacity="1" d="M8.558,11.529L3.694,13.011L-2.08,-4.644C-3.325,-2.506,-5.032,-0.684,-7.168,0.812L-8.558,-3.439C-7.422,-4.227,-6.314,-5.397,-5.176,-6.973C-4.068,-8.54,-3.462,-10.158,-3.389,-11.817L0.531,-13.011L8.558,11.529Z" /></g><g id="Group 12" transform="matrix(1,0,0,1,739.496,1401.189)"><path fill="#20238c" fill-opacity="1" d="M-2.796,-8.589C-3.385,-8.409,-3.857,-8.065,-4.21,-7.56C-4.564,-7.055,-4.705,-6.301,-4.636,-5.296C-4.564,-3.985,-4.073,-1.892,-3.135,0.976C-2.197,3.844,-1.406,5.768,-0.76,6.751C-0.114,7.734,0.502,8.331,1.061,8.552C1.649,8.764,2.237,8.78,2.826,8.6C3.386,8.429,3.858,8.088,4.212,7.583C4.536,7.087,4.677,6.33,4.637,5.316C4.569,4.017,4.081,1.931,3.143,-0.937C2.205,-3.805,1.413,-5.729,0.768,-6.712C0.122,-7.695,-0.496,-8.295,-1.056,-8.521C-1.646,-8.739,-2.236,-8.76,-2.796,-8.589ZM-4.066,-12.473C-1.619,-13.219,0.573,-12.957,2.511,-11.689C4.786,-10.183,6.697,-7.117,8.213,-2.482C9.725,2.142,9.987,5.716,8.998,8.242C8.187,10.323,6.544,11.74,4.097,12.486C1.621,13.241,-0.654,12.927,-2.784,11.567C-4.885,10.195,-6.687,7.162,-8.222,2.47C-9.727,-2.131,-9.985,-5.694,-8.996,-8.22C-8.186,-10.301,-6.542,-11.718,-4.066,-12.473Z" /></g><g id="Group 11" transform="matrix(1,0,0,1,759.167,1395.196)"><path fill="#20238c" fill-opacity="1" d="M-2.807,-8.589C-3.397,-8.409,-3.868,-8.065,-4.192,-7.569C-4.546,-7.064,-4.688,-6.31,-4.648,-5.296C-4.576,-3.985,-4.085,-1.891,-3.147,0.977C-2.209,3.845,-1.417,5.769,-0.772,6.752C-0.097,7.726,0.49,8.332,1.078,8.544C1.637,8.765,2.225,8.78,2.815,8.6C3.404,8.42,3.876,8.079,4.2,7.583C4.553,7.078,4.695,6.321,4.626,5.316C4.587,4.007,4.099,1.922,3.161,-0.946C2.223,-3.814,1.402,-5.729,0.756,-6.712C0.11,-7.695,-0.507,-8.294,-1.067,-8.521C-1.657,-8.739,-2.218,-8.769,-2.807,-8.589ZM-4.078,-12.472C-1.632,-13.218,0.561,-12.957,2.499,-11.689C4.804,-10.192,6.715,-7.126,8.231,-2.491C9.743,2.133,10.005,5.708,8.986,8.243C8.176,10.324,6.532,11.74,4.086,12.486C1.61,13.241,-0.664,12.927,-2.765,11.558C-4.867,10.187,-6.699,7.163,-8.234,2.471C-9.739,-2.13,-9.997,-5.694,-9.008,-8.22C-8.168,-10.31,-6.525,-11.726,-4.078,-12.472Z" /></g><g id="Group 10" transform="matrix(1,0,0,1,778.834,1389.203)"><path fill="#20238c" fill-opacity="1" d="M-2.814,-8.587C-3.403,-8.407,-3.845,-8.072,-4.198,-7.567C-4.552,-7.062,-4.695,-6.308,-4.625,-5.303C-4.582,-3.983,-4.062,-1.898,-3.124,0.97C-2.186,3.838,-1.395,5.762,-0.749,6.745C-0.104,7.728,0.513,8.325,1.072,8.546C1.66,8.758,2.219,8.782,2.808,8.602C3.398,8.422,3.869,8.081,4.223,7.576C4.547,7.08,4.689,6.323,4.649,5.309C4.58,4.01,4.092,1.924,3.154,-0.944C2.216,-3.812,1.425,-5.736,0.779,-6.719C0.134,-7.702,-0.484,-8.302,-1.074,-8.519C-1.634,-8.746,-2.224,-8.767,-2.814,-8.587ZM-4.084,-12.47C-1.637,-13.216,0.555,-12.955,2.493,-11.687C4.798,-10.19,6.708,-7.124,8.224,-2.489C9.736,2.135,9.998,5.71,9.009,8.236C8.169,10.325,6.526,11.742,4.079,12.488C1.633,13.234,-0.671,12.928,-2.772,11.56C-4.874,10.189,-6.705,7.165,-8.24,2.473C-9.745,-2.128,-10.002,-5.692,-8.984,-8.227C-8.174,-10.308,-6.53,-11.724,-4.084,-12.47Z" /></g><g id="Group 9" transform="matrix(1,0,0,1,798.109,1382.458)"><path fill="#20238c" fill-opacity="1" d="M8.573,11.529L3.709,13.011L-2.065,-4.644C-3.31,-2.506,-5.016,-0.684,-7.182,0.821L-8.573,-3.43C-7.437,-4.217,-6.299,-5.397,-5.191,-6.964C-4.054,-8.54,-3.477,-10.149,-3.404,-11.808L0.546,-13.011L8.573,11.529Z" /></g><g id="Group 8" transform="matrix(1,0,0,1,815.824,1377.059)"><path fill="#20238c" fill-opacity="1" d="M8.573,11.529L3.709,13.011L-2.066,-4.644C-3.311,-2.506,-5.017,-0.684,-7.182,0.821L-8.573,-3.43C-7.437,-4.217,-6.299,-5.397,-5.191,-6.964C-4.054,-8.54,-3.477,-10.149,-3.404,-11.808L0.546,-13.011L8.573,11.529Z" /></g><g id="Group 7" transform="matrix(1,0,0,1,833.554,1371.66)"><path fill="#20238c" fill-opacity="1" d="M8.558,11.529L3.695,13.011L-2.08,-4.644C-3.326,-2.506,-5.031,-0.684,-7.167,0.812L-8.558,-3.439C-7.422,-4.226,-6.313,-5.397,-5.176,-6.973C-4.068,-8.54,-3.463,-10.158,-3.419,-11.808L0.531,-13.011L8.558,11.529Z" /></g><g id="Group 6" transform="matrix(1,0,0,1,851.268,1366.261)"><path fill="#20238c" fill-opacity="1" d="M8.558,11.529L3.695,13.011L-2.08,-4.644C-3.326,-2.506,-5.031,-0.684,-7.167,0.812L-8.558,-3.439C-7.422,-4.226,-6.314,-5.397,-5.176,-6.973C-4.068,-8.54,-3.462,-10.158,-3.389,-11.817L0.531,-13.011L8.558,11.529Z" /></g><g id="Group 5" transform="matrix(1,0,0,1,871.341,1361.006)"><path fill="#20238c" fill-opacity="1" d="M-2.796,-8.589C-3.385,-8.409,-3.857,-8.065,-4.21,-7.56C-4.534,-7.064,-4.676,-6.311,-4.636,-5.297C-4.564,-3.986,-4.073,-1.892,-3.135,0.976C-2.197,3.844,-1.405,5.768,-0.76,6.751C-0.114,7.734,0.502,8.331,1.09,8.543C1.648,8.764,2.237,8.78,2.826,8.6C3.386,8.429,3.858,8.088,4.212,7.583C4.566,7.078,4.707,6.321,4.637,5.316C4.598,4.007,4.081,1.931,3.143,-0.937C2.205,-3.805,1.413,-5.729,0.768,-6.712C0.122,-7.695,-0.496,-8.295,-1.056,-8.521C-1.646,-8.739,-2.236,-8.76,-2.796,-8.589ZM-4.066,-12.473C-1.619,-13.219,0.573,-12.957,2.511,-11.689C4.816,-10.192,6.697,-7.117,8.213,-2.482C9.725,2.142,9.987,5.716,8.998,8.242C8.187,10.323,6.544,11.74,4.097,12.486C1.621,13.241,-0.653,12.927,-2.783,11.567C-4.885,10.196,-6.687,7.162,-8.222,2.47C-9.727,-2.131,-9.985,-5.694,-8.996,-8.22C-8.156,-10.309,-6.542,-11.718,-4.066,-12.473Z" /></g><g id="Group 4" transform="matrix(1,0,0,1,891.012,1355.013)"><path fill="#20238c" fill-opacity="1" d="M-2.807,-8.589C-3.396,-8.409,-3.868,-8.065,-4.192,-7.569C-4.545,-7.064,-4.688,-6.31,-4.648,-5.296C-4.576,-3.985,-4.085,-1.891,-3.147,0.977C-2.209,3.845,-1.418,5.769,-0.743,6.743C-0.097,7.726,0.49,8.332,1.078,8.544C1.637,8.765,2.226,8.78,2.815,8.6C3.404,8.42,3.876,8.079,4.2,7.583C4.553,7.078,4.695,6.321,4.655,5.307C4.586,4.008,4.099,1.922,3.161,-0.946C2.223,-3.814,1.431,-5.738,0.756,-6.712C0.111,-7.695,-0.507,-8.295,-1.067,-8.521C-1.657,-8.739,-2.218,-8.769,-2.807,-8.589ZM-4.078,-12.472C-1.632,-13.218,0.561,-12.957,2.499,-11.689C4.804,-10.192,6.715,-7.126,8.231,-2.491C9.743,2.133,10.005,5.708,8.986,8.243C8.176,10.324,6.532,11.74,4.086,12.486C1.61,13.241,-0.664,12.927,-2.765,11.558C-4.867,10.187,-6.699,7.163,-8.234,2.471C-9.739,-2.13,-9.996,-5.694,-9.007,-8.22C-8.167,-10.309,-6.524,-11.726,-4.078,-12.472Z" /></g><g id="Group 3" transform="matrix(1,0,0,1,910.279,1348.271)"><path fill="#20238c" fill-opacity="1" d="M8.558,11.534L3.724,13.007L-2.051,-4.648C-3.326,-2.501,-5.002,-0.689,-7.168,0.816L-8.558,-3.435C-7.422,-4.222,-6.284,-5.401,-5.176,-6.968C-4.068,-8.535,-3.463,-10.153,-3.389,-11.812L0.531,-13.007L8.558,11.534Z" /></g><g id="Group 2" transform="matrix(1,0,0,1,927.994,1342.872)"><path fill="#20238c" fill-opacity="1" d="M8.558,11.534L3.724,13.007L-2.051,-4.648C-3.296,-2.51,-5.002,-0.689,-7.168,0.816L-8.558,-3.434C-7.422,-4.222,-6.284,-5.401,-5.176,-6.968C-4.039,-8.544,-3.463,-10.153,-3.389,-11.812L0.531,-13.007L8.558,11.534Z" /></g><g id="Group 1" transform="matrix(1,0,0,1,948.077,1337.621)"><path fill="#20238c" fill-opacity="1" d="M-2.807,-8.589C-3.396,-8.409,-3.868,-8.065,-4.192,-7.569C-4.545,-7.064,-4.688,-6.31,-4.648,-5.296C-4.576,-3.985,-4.085,-1.891,-3.147,0.977C-2.209,3.845,-1.418,5.769,-0.772,6.752C-0.097,7.726,0.49,8.332,1.078,8.544C1.637,8.765,2.226,8.78,2.815,8.6C3.405,8.42,3.876,8.079,4.2,7.583C4.554,7.078,4.695,6.321,4.655,5.307C4.587,4.008,4.069,1.931,3.131,-0.937C2.193,-3.805,1.401,-5.729,0.756,-6.712C0.11,-7.695,-0.507,-8.295,-1.067,-8.521C-1.657,-8.739,-2.217,-8.769,-2.807,-8.589ZM-4.078,-12.472C-1.632,-13.218,0.561,-12.957,2.499,-11.689C4.804,-10.192,6.715,-7.126,8.231,-2.491C9.743,2.133,10.004,5.708,8.986,8.243C8.175,10.324,6.532,11.74,4.086,12.486C1.61,13.241,-0.664,12.927,-2.765,11.558C-4.867,10.187,-6.699,7.163,-8.234,2.471C-9.739,-2.13,-9.996,-5.694,-9.007,-8.22C-8.167,-10.309,-6.524,-11.726,-4.078,-12.472Z" /></g></g><g id="Group 3" transform="matrix(1,0,0,1,540.293,816.767)"><path fill="#e3e3fe" fill-opacity="1" d="M69.145,-20.96C67.209,-26.879,60.883,-30.159,54.933,-28.346C29.094,-20.471,-36.441,-0.497,-62.057,7.31C-64.823,8.153,-67.142,10.076,-68.484,12.643C-69.797,15.204,-70.047,18.198,-69.148,20.946C-69.147,20.949,-69.145,20.955,-69.143,20.96C-67.207,26.879,-60.91,30.165,-54.932,28.343C-29.092,20.468,36.443,0.494,62.059,-7.313C64.825,-8.156,67.144,-10.078,68.458,-12.636C69.799,-15.206,70.048,-18.199,69.149,-20.947C69.147,-20.952,69.147,-20.955,69.145,-20.96Z" /></g><g id="Group 2" transform="matrix(1,0,0,1,654.006,850.072)"><path fill="#e3e3fe" fill-opacity="1" d="M162.615,-49.534C161.536,-52.833,158.044,-54.673,154.692,-53.652C114.273,-41.333,-118.385,29.575,-158.607,41.834C-160.184,42.315,-161.491,43.399,-162.246,44.848C-163.001,46.295,-163.103,47.974,-162.596,49.524L-162.592,49.536C-161.513,52.835,-158.021,54.673,-154.669,53.652C-114.25,41.333,118.408,-29.575,158.63,-41.834C160.207,-42.315,161.514,-43.4,162.204,-44.827C162.959,-46.274,163.126,-47.972,162.619,-49.522L162.615,-49.534Z" /></g><g id="Group 1" transform="matrix(1,0,0,1,661.624,873.363)"><path fill="#e3e3fe" fill-opacity="1" d="M162.615,-49.534C161.536,-52.833,158.044,-54.674,154.692,-53.652C114.273,-41.333,-118.385,29.575,-158.607,41.834C-160.184,42.315,-161.491,43.399,-162.246,44.848C-163.001,46.295,-163.103,47.974,-162.596,49.524L-162.592,49.536C-161.513,52.835,-158.021,54.674,-154.669,53.652C-114.25,41.333,118.408,-29.575,158.63,-41.834C160.207,-42.315,161.514,-43.399,162.204,-44.826C162.959,-46.273,163.126,-47.971,162.619,-49.522L162.615,-49.534Z" /></g></g></g></g></g></g></g></g></g></g></g></g></g><g id="Body"><g transform="translate(1006.527,1611.874)"><g transform="rotate(-0.834)"><animateTransform repeatCount="indefinite" type="rotate" attributeName="transform" dur="6s" begin="0s" calcMode="spline" values="0; -2; 0; -2; 0" keyTimes="0; 0.25; 0.5; 0.75; 1" keySplines="0.333 0 0.667 1; 0.333 0 0.667 1; 0.333 0 0.667 1; 0.333 0 0.667 1" fill="freeze" /><g transform="scale(1,1) translate(180.928,-310.013)"><g id="Hand Left"><g transform="translate(125.546,-206.86)"><g transform="rotate(0)"><animateTransform repeatCount="indefinite" type="rotate" attributeName="transform" dur="3s" begin="0.667s" calcMode="spline" values="0; 6; 0" keyTimes="0; 0.5; 1" keySplines="0.333 0 0.667 1; 0.333 0 0.667 1" fill="freeze" /><g transform="scale(1,1) translate(-1313.001,-1095.001)"><g id="Group 1" transform="matrix(1,0,0,1,1098.95,1281.863)"><path fill="url(#null)" d="M224.65,-258.219C322.885,-231.405,401.656,134.983,321.72,217.48C241.74,299.969,-148.026,238.412,-255.055,236.744C-346.856,288.66,-362.746,200.182,-351.443,202.146C-301.223,210.867,-294.908,171.814,-294.908,171.814C-294.908,171.814,-293.289,167.903,-304.202,148.79C-286.478,141.045,-257.597,178.112,-257.597,178.112C-257.597,178.112,143.862,107.918,182.489,90.337C201.702,81.603,117.957,-47.465,136.399,-163.655C142.733,-203.479,168.462,-273.558,224.65,-258.219Z" /></g><g id="Group 2" transform="matrix(1,0,0,1,1316.221,1119.12)"><path fill="url(#null)" d="M-103.629,131.964C-88.134,107.007,-50.707,74.918,-18.596,79.072C-0.19,81.449,12.424,95.322,28.787,102.407C65.251,118.206,116.752,113.866,142.341,81.162C173.696,41.166,130.448,-13.784,106.032,-45.206C73.133,-87.464,28.499,-138.783,-32.383,-131.216C-43.268,-129.869,-53.67,-126.679,-63.597,-122.27C-76.796,-116.429,-88.827,-108.59,-99.632,-99.277C-113.123,-87.653,-124.956,-73.799,-133.728,-58.5C-148.108,-33.316,-153.743,-3.822,-153.305,24.738C-152.669,61.802,-142.535,96.411,-126.753,129.978L-103.629,131.964Z" /></g></g></g></g></g></g></g></g></g><g id="Body"><g transform="translate(1006.527,1611.874)"><g transform="rotate(-0.834)"><animateTransform repeatCount="indefinite" type="rotate" attributeName="transform" dur="6s" begin="0s" calcMode="spline" values="0; -2; 0; -2; 0" keyTimes="0; 0.25; 0.5; 0.75; 1" keySplines="0.333 0 0.667 1; 0.333 0 0.667 1; 0.333 0 0.667 1; 0.333 0 0.667 1" fill="freeze" /><g transform="scale(1,1) translate(180.928,-310.013)"><g id="Hand Left"><g transform="translate(125.546,-206.86)"><g transform="rotate(0)"><animateTransform repeatCount="indefinite" type="rotate" attributeName="transform" dur="3s" begin="0.667s" calcMode="spline" values="0; 6; 0" keyTimes="0; 0.5; 1" keySplines="0.333 0 0.667 1; 0.333 0 0.667 1" fill="freeze" /><g transform="scale(1,1) translate(-1313.001,-1095.001)"><g transform="matrix(1,0,0,1,0,0)" id="Hand Left 2"><g id="Group 1" transform="matrix(1,0,0,1,1098.95,1281.863)"><path fill="url(#null)" d="M224.65,-258.219C322.885,-231.405,401.656,134.983,321.72,217.48C241.74,299.969,-148.026,238.412,-255.055,236.744C-346.856,288.66,-362.746,200.182,-351.443,202.146C-301.223,210.867,-294.908,171.814,-294.908,171.814C-294.908,171.814,-293.289,167.903,-304.202,148.79C-286.478,141.045,-257.597,178.112,-257.597,178.112C-257.597,178.112,143.862,107.918,182.489,90.337C201.702,81.603,117.957,-47.465,136.399,-163.655C142.733,-203.479,168.462,-273.558,224.65,-258.219Z" /></g></g></g></g></g></g></g></g></g></g><g id="Secure"><g transform="translate(1603.055,851.297)"><animateTransform repeatCount="indefinite" type="translate" attributeName="transform" dur="3s" begin="0.667s" calcMode="spline" values="1603.055 851.297; 1603.055 803.297; 1603.055 851.297" keyTimes="0; 0.5; 1" keySplines="0.333 0 0.667 1; 0.333 0 0.667 1" fill="freeze" /><g transform="scale(1,1)"><animateTransform repeatCount="indefinite" type="scale" attributeName="transform" dur="3s" begin="0.667s" calcMode="spline" values="1 1; 1.1 1.1; 1 1" keyTimes="0; 0.5; 1" keySplines="0.333 0 0.667 1; 0.333 0 0.667 1" fill="freeze" /><g transform="translate(-1603.055,-851.297)"><g id="Group 3" transform="matrix(1,0,0,1,1603.055,851.297)"><path fill="url(#null)" d="M113.601,-74.655C113.601,-74.655,49.27,-92.936,3.849,-140.218C-47.169,-95.932,-113.601,-74.655,-113.601,-74.655L-113.601,23.711C-113.601,64.196,-92.365,101.739,-57.642,122.578C-55.718,123.739,-53.777,124.901,-51.852,126.062C-20.753,144.733,18.043,144.95,49.35,126.619L49.35,126.619C89.142,103.303,113.601,60.636,113.601,14.515L113.601,-74.655Z" /></g><g id="Group 2" transform="matrix(1,0,0,1,1603.055,853.378)"><path fill="#ffffff" fill-opacity="1" d="M83.512,-55.132C83.512,-55.132,36.221,-68.639,2.83,-103.572C-34.675,-70.852,-83.512,-55.132,-83.512,-55.132L-83.512,17.635C-83.512,47.501,-67.878,75.193,-42.304,90.635C-40.948,91.459,-39.592,92.271,-38.248,93.083C-15.327,106.923,13.335,107.072,36.397,93.495L36.409,93.495C65.591,76.314,83.512,44.973,83.512,11.104C83.512,-20.923,83.512,-55.132,83.512,-55.132Z" /></g><g id="Group 1" transform="matrix(1,0,0,1,1611.272,865.158)"><path fill="url(#null)" d="M-55.095,11.736L-23.842,52.155C-21.233,55.522,-17.253,57.415,-13.116,57.265C-8.953,57.118,-5.106,54.943,-2.734,51.401L55.635,-35.821C59.772,-42.016,58.297,-50.537,52.315,-54.838C46.333,-59.137,38.137,-57.595,33.974,-51.4L-14.329,20.781L-34.54,-5.357C-39.073,-11.24,-47.373,-12.189,-53.039,-7.472C-58.731,-2.755,-59.627,5.853,-55.095,11.736Z" /></g></g></g></g></g><g id="Code"><g transform="translate(1116.735,544.605)"><animateTransform repeatCount="indefinite" type="translate" attributeName="transform" dur="6s" begin="0s" calcMode="spline" values="1116.735 557.534; 1116.735 526.534; 1116.735 557.534; 1116.735 526.534; 1116.735 557.534" keyTimes="0; 0.25; 0.5; 0.75; 1" keySplines="0.333 0 0.667 1; 0.333 0 0.667 1; 0.333 0 0.667 1; 0.333 0 0.667 1" fill="freeze" /><g transform="scale(1,1) translate(-1116.735,-557.534)"><g id="Group 2" transform="matrix(1,0,0,1,1116.735,557.534)"><path fill="#93d1ff" fill-opacity="1" d="M179.693,0C179.693,-15.729,166.944,-28.495,151.211,-28.495L-151.183,-28.495C-166.917,-28.495,-179.693,-15.729,-179.693,0C-179.693,15.729,-166.917,28.495,-151.183,28.495L151.211,28.495C166.944,28.495,179.693,15.729,179.693,0Z" /></g><g id="Group 1" transform="matrix(1,0,0,1,0,0)"><g id="Group 5" transform="matrix(1,0,0,1,1018.347,557.547)"><path fill="#ffffff" fill-opacity="1" d="M12.752,-9.691C13.718,-10.236,14.94,-9.92,15.526,-8.973C15.81,-8.484,16.122,-7.979,16.314,-7.658C16.373,-7.564,16.412,-7.436,16.357,-7.341C16.33,-7.231,16.272,-7.131,16.165,-7.079C14.058,-5.884,3.783,-0.028,3.783,-0.028L16.288,6.798C16.403,6.861,16.467,6.946,16.513,7.063C16.53,7.164,16.532,7.291,16.475,7.388C16.283,7.716,15.99,8.217,15.695,8.72C15.135,9.677,13.91,10.014,12.93,9.479C9.415,7.56,1.779,3.393,1.779,3.393L1.919,17.697C1.919,17.697,0.888,17.703,-0.141,17.707C-1.252,17.721,-2.169,16.82,-2.167,15.713C-2.212,11.765,-2.277,3.437,-2.277,3.437C-2.277,3.437,-12.648,9.324,-14.7,10.491C-14.911,10.592,-15.145,10.538,-15.261,10.346C-15.453,10.025,-15.789,9.496,-16.099,8.986C-16.37,8.541,-16.442,8.013,-16.303,7.516C-16.193,7.004,-15.867,6.576,-15.413,6.321C-11.933,4.34,-4.358,0.043,-4.358,0.043L-15.538,-6.059C-15.97,-6.295,-16.325,-6.727,-16.455,-7.22C-16.585,-7.713,-16.534,-8.254,-16.273,-8.699C-15.968,-9.219,-15.661,-9.745,-15.467,-10.076C-15.354,-10.268,-15.09,-10.329,-14.888,-10.219C-12.813,-9.086,-2.354,-3.378,-2.354,-3.378C-2.354,-3.378,-2.434,-11.681,-2.476,-15.635C-2.467,-16.17,-2.27,-16.7,-1.891,-17.088C-1.512,-17.476,-0.971,-17.684,-0.434,-17.692C0.177,-17.696,0.788,-17.7,1.172,-17.707C1.4,-17.707,1.595,-17.52,1.58,-17.301C1.607,-14.945,1.731,-3.406,1.731,-3.406C1.731,-3.406,9.271,-7.708,12.752,-9.691Z" /></g><g id="Group 4" transform="matrix(1,0,0,1,1070.065,557.547)"><path fill="#ffffff" fill-opacity="1" d="M12.751,-9.691C13.717,-10.236,14.94,-9.92,15.526,-8.973C15.81,-8.484,16.122,-7.979,16.314,-7.658C16.373,-7.564,16.412,-7.436,16.357,-7.341C16.33,-7.231,16.272,-7.131,16.165,-7.079C14.058,-5.884,3.783,-0.028,3.783,-0.028L16.288,6.798C16.403,6.861,16.467,6.946,16.513,7.063C16.53,7.164,16.532,7.291,16.475,7.388C16.283,7.716,15.99,8.217,15.695,8.72C15.134,9.677,13.91,10.014,12.93,9.479C9.415,7.56,1.779,3.393,1.779,3.393L1.918,17.697C1.918,17.697,0.888,17.703,-0.141,17.707C-1.252,17.721,-2.169,16.82,-2.167,15.713C-2.212,11.765,-2.277,3.437,-2.277,3.437C-2.277,3.437,-12.648,9.324,-14.7,10.491C-14.911,10.592,-15.145,10.538,-15.261,10.346C-15.453,10.025,-15.789,9.496,-16.099,8.986C-16.37,8.541,-16.442,8.013,-16.303,7.516C-16.193,7.004,-15.867,6.576,-15.413,6.321C-11.933,4.34,-4.358,0.043,-4.358,0.043L-15.538,-6.059C-15.97,-6.295,-16.325,-6.727,-16.455,-7.22C-16.585,-7.713,-16.534,-8.254,-16.273,-8.699C-15.968,-9.219,-15.661,-9.745,-15.467,-10.076C-15.355,-10.268,-15.091,-10.329,-14.889,-10.219C-12.814,-9.086,-2.354,-3.378,-2.354,-3.378C-2.354,-3.378,-2.434,-11.681,-2.476,-15.635C-2.467,-16.17,-2.27,-16.7,-1.891,-17.088C-1.512,-17.476,-0.971,-17.684,-0.434,-17.692C0.177,-17.696,0.788,-17.7,1.172,-17.707C1.4,-17.707,1.595,-17.52,1.58,-17.301C1.607,-14.945,1.731,-3.406,1.731,-3.406C1.731,-3.406,9.27,-7.708,12.751,-9.691Z" /></g><g id="Group 3" transform="matrix(1,0,0,1,1120.992,557.547)"><path fill="#ffffff" fill-opacity="1" d="M12.751,-9.691C13.717,-10.236,14.94,-9.92,15.526,-8.973C15.81,-8.484,16.122,-7.979,16.314,-7.658C16.373,-7.564,16.412,-7.436,16.357,-7.341C16.33,-7.231,16.272,-7.131,16.165,-7.079C14.058,-5.884,3.783,-0.028,3.783,-0.028L16.288,6.798C16.403,6.861,16.467,6.946,16.513,7.063C16.53,7.164,16.532,7.291,16.475,7.388C16.283,7.716,15.99,8.217,15.695,8.72C15.135,9.677,13.91,10.014,12.93,9.479C9.415,7.56,1.779,3.393,1.779,3.393L1.919,17.697C1.919,17.697,0.888,17.703,-0.141,17.707C-1.252,17.721,-2.17,16.82,-2.167,15.713C-2.212,11.765,-2.277,3.437,-2.277,3.437C-2.277,3.437,-12.648,9.324,-14.7,10.491C-14.911,10.592,-15.145,10.538,-15.261,10.346C-15.453,10.025,-15.789,9.496,-16.099,8.986C-16.37,8.541,-16.442,8.013,-16.303,7.516C-16.193,7.004,-15.867,6.576,-15.413,6.321C-11.933,4.34,-4.358,0.043,-4.358,0.043L-15.538,-6.059C-15.97,-6.295,-16.325,-6.727,-16.455,-7.22C-16.585,-7.713,-16.534,-8.254,-16.273,-8.699C-15.968,-9.219,-15.661,-9.745,-15.467,-10.076C-15.354,-10.268,-15.091,-10.329,-14.889,-10.219C-12.814,-9.086,-2.355,-3.378,-2.355,-3.378C-2.355,-3.378,-2.434,-11.681,-2.476,-15.635C-2.467,-16.17,-2.27,-16.7,-1.891,-17.088C-1.512,-17.476,-0.971,-17.684,-0.434,-17.692C0.177,-17.696,0.788,-17.7,1.172,-17.707C1.4,-17.707,1.595,-17.52,1.58,-17.301C1.607,-14.945,1.731,-3.406,1.731,-3.406C1.731,-3.406,9.27,-7.708,12.751,-9.691Z" /></g><g id="Group 2" transform="matrix(1,0,0,1,1170.607,557.547)"><path fill="#ffffff" fill-opacity="1" d="M12.752,-9.691C13.718,-10.236,14.94,-9.92,15.526,-8.973C15.81,-8.484,16.122,-7.979,16.314,-7.658C16.373,-7.564,16.412,-7.436,16.357,-7.341C16.33,-7.231,16.272,-7.131,16.165,-7.079C14.058,-5.884,3.783,-0.028,3.783,-0.028L16.288,6.798C16.403,6.861,16.467,6.946,16.513,7.063C16.53,7.164,16.532,7.291,16.475,7.388C16.283,7.716,15.99,8.217,15.695,8.72C15.134,9.677,13.91,10.014,12.93,9.479C9.415,7.56,1.779,3.393,1.779,3.393L1.919,17.697C1.919,17.697,0.888,17.703,-0.141,17.707C-1.252,17.721,-2.169,16.82,-2.167,15.713C-2.212,11.765,-2.277,3.437,-2.277,3.437C-2.277,3.437,-12.648,9.324,-14.7,10.491C-14.911,10.592,-15.145,10.538,-15.261,10.346C-15.453,10.025,-15.789,9.496,-16.099,8.986C-16.37,8.541,-16.442,8.013,-16.303,7.516C-16.193,7.004,-15.867,6.576,-15.413,6.321C-11.933,4.34,-4.358,0.043,-4.358,0.043L-15.538,-6.059C-15.97,-6.295,-16.325,-6.727,-16.455,-7.22C-16.585,-7.713,-16.534,-8.254,-16.273,-8.699C-15.968,-9.219,-15.661,-9.745,-15.467,-10.076C-15.354,-10.268,-15.09,-10.329,-14.888,-10.219C-12.813,-9.086,-2.354,-3.378,-2.354,-3.378C-2.354,-3.378,-2.434,-11.681,-2.476,-15.635C-2.467,-16.17,-2.27,-16.7,-1.891,-17.088C-1.512,-17.476,-0.971,-17.684,-0.434,-17.692C0.177,-17.696,0.788,-17.7,1.172,-17.707C1.4,-17.707,1.595,-17.52,1.58,-17.301C1.607,-14.945,1.731,-3.406,1.731,-3.406C1.731,-3.406,9.271,-7.708,12.752,-9.691Z" /></g><g id="Group 1" transform="matrix(1,0,0,1,1215.009,557.547)"><path fill="#ffffff" fill-opacity="1" d="M12.751,-9.691C13.717,-10.236,14.94,-9.92,15.526,-8.973C15.81,-8.484,16.122,-7.979,16.314,-7.658C16.373,-7.564,16.412,-7.436,16.357,-7.341C16.33,-7.231,16.272,-7.131,16.165,-7.079C14.058,-5.884,3.783,-0.028,3.783,-0.028L16.288,6.798C16.403,6.861,16.467,6.946,16.513,7.063C16.53,7.164,16.532,7.291,16.475,7.388C16.283,7.716,15.99,8.217,15.695,8.72C15.134,9.677,13.91,10.014,12.93,9.479C9.415,7.56,1.779,3.393,1.779,3.393L1.918,17.697C1.918,17.697,0.888,17.703,-0.141,17.707C-1.252,17.721,-2.17,16.82,-2.167,15.713C-2.212,11.765,-2.277,3.437,-2.277,3.437C-2.277,3.437,-12.648,9.324,-14.7,10.491C-14.911,10.592,-15.145,10.538,-15.261,10.346C-15.453,10.025,-15.789,9.496,-16.099,8.986C-16.37,8.541,-16.442,8.013,-16.303,7.516C-16.193,7.004,-15.867,6.576,-15.413,6.321C-11.933,4.34,-4.358,0.043,-4.358,0.043L-15.538,-6.059C-15.97,-6.295,-16.325,-6.727,-16.455,-7.22C-16.585,-7.713,-16.534,-8.254,-16.273,-8.699C-15.968,-9.219,-15.661,-9.745,-15.467,-10.076C-15.355,-10.268,-15.091,-10.329,-14.889,-10.219C-12.814,-9.086,-2.354,-3.378,-2.354,-3.378C-2.354,-3.378,-2.434,-11.681,-2.476,-15.635C-2.467,-16.17,-2.27,-16.7,-1.891,-17.088C-1.512,-17.476,-0.971,-17.684,-0.434,-17.692C0.177,-17.696,0.788,-17.7,1.172,-17.707C1.4,-17.707,1.595,-17.52,1.58,-17.301C1.607,-14.945,1.731,-3.406,1.731,-3.406C1.731,-3.406,9.27,-7.708,12.751,-9.691Z" /></g></g></g></g></g><g id="Body"><g transform="translate(1006.527,1611.874)"><g transform="rotate(-0.834)"><animateTransform repeatCount="indefinite" type="rotate" attributeName="transform" dur="6s" begin="0s" calcMode="spline" values="0; -2; 0; -2; 0" keyTimes="0; 0.25; 0.5; 0.75; 1" keySplines="0.333 0 0.667 1; 0.333 0 0.667 1; 0.333 0 0.667 1; 0.333 0 0.667 1" fill="freeze" /><g transform="scale(1,1) translate(180.928,-310.013)"><g id="Hand Right"><g transform="translate(-127.918,-221.712)"><g transform="rotate(0)"><animateTransform repeatCount="indefinite" type="rotate" attributeName="transform" dur="3s" begin="0.667s" calcMode="spline" values="0; 10; 0" keyTimes="0; 0.5; 1" keySplines="0.333 0 0.667 1; 0.333 0 0.667 1" fill="freeze" /><g transform="scale(1,1) translate(-1059.537,-1080.149)"><g id="Phone"><g transform="translate(712.561,1074.233)"><g transform="rotate(0)"><animateTransform repeatCount="indefinite" type="rotate" attributeName="transform" dur="3s" begin="0.667s" calcMode="spline" values="0; -5; 0" keyTimes="0; 0.5; 1" keySplines="0.333 0 0.667 1; 0.333 0 0.667 1" fill="freeze" /><g transform="scale(1,1) translate(-712.56,-1074.233)"><g id="Shape Layer 1"><g transform="translate(780.351,1262.663)"><animateTransform repeatCount="indefinite" type="translate" attributeName="transform" dur="3s" begin="0.667s" calcMode="spline" values="780.351 1262.663; 683.66 961.035; 780.351 1262.663" keyTimes="0; 0.5; 1" keySplines="0.333 0 0.667 1; 0.333 0 0.667 1" fill="freeze" /><g transform="rotate(-16.617) scale(1,1) translate(407.606,730.208)"><g id="Shape Layer 2"><g transform="translate(-409.09,-736.84) rotate(0.269)"><g transform="scale(1,0)"><animateTransform repeatCount="indefinite" type="scale" attributeName="transform" dur="3s" begin="0.667s" calcMode="spline" values="1 0; 1 0.7; 1 0; 1 -0.7; 1 0" keyTimes="0; 0.244; 0.5; 0.744; 1" keySplines="0.333 0 0.667 1; 0.333 0 0.667 1; 0.333 0 0.667 1; 0.333 0 0.667 1" fill="freeze" /><g transform="translate(284.5,-11)"><g id="Rectangle 1" transform="matrix(1,0,0,1,-284.5,106)"><rect height="190" width="245" y="0" x="0" stroke-linejoin="miter" stroke-linecap="butt" stroke-width="0" stroke-opacity="1" stroke="#1e2188" fill="url(#null)" /></g></g></g></g></g></g></g></g></g></g></g></g></g></g></g></g></g></g></g></g><g id="Body"><g transform="translate(1006.527,1611.874)"><g transform="rotate(-0.834)"><animateTransform repeatCount="indefinite" type="rotate" attributeName="transform" dur="6s" begin="0s" calcMode="spline" values="0; -2; 0; -2; 0" keyTimes="0; 0.25; 0.5; 0.75; 1" keySplines="0.333 0 0.667 1; 0.333 0 0.667 1; 0.333 0 0.667 1; 0.333 0 0.667 1" fill="freeze" /><g transform="scale(1,1) translate(180.928,-310.013)"><g id="Hand Right"><g transform="translate(-127.918,-221.712)"><g transform="rotate(0)"><animateTransform repeatCount="indefinite" type="rotate" attributeName="transform" dur="3s" begin="0.667s" calcMode="spline" values="0; 10; 0" keyTimes="0; 0.5; 1" keySplines="0.333 0 0.667 1; 0.333 0 0.667 1" fill="freeze" /><g transform="scale(1,1) translate(-1059.537,-1080.149)"><g id="Phone"><g transform="translate(712.561,1074.233)"><g transform="rotate(0)"><animateTransform repeatCount="indefinite" type="rotate" attributeName="transform" dur="3s" begin="0.667s" calcMode="spline" values="0; -5; 0" keyTimes="0; 0.5; 1" keySplines="0.333 0 0.667 1; 0.333 0 0.667 1" fill="freeze" /><g transform="scale(1,1) translate(-712.56,-1074.233)"><g id="Shape Layer 1"><g transform="translate(780.351,1262.663)"><animateTransform repeatCount="indefinite" type="translate" attributeName="transform" dur="3s" begin="0.667s" calcMode="spline" values="780.351 1262.663; 683.66 961.035; 780.351 1262.663" keyTimes="0; 0.5; 1" keySplines="0.333 0 0.667 1; 0.333 0 0.667 1" fill="freeze" /><g transform="rotate(-16.617) scale(1,1) translate(407.606,730.208)"><g id="Shape 1"><path fill="url(#null)" stroke-linejoin="miter" stroke-linecap="round" stroke-width="16" stroke-opacity="1" stroke="#1e2188" d="M-531.091,-730.503L-284.121,-729.913" /></g></g></g></g></g></g></g></g></g></g></g></g></g></g></g></g></svg>